<svg width="548" height="390" viewBox="0 0 548 390" fill="none" xmlns="http://www.w3.org/2000/svg">
<mask id="mask0_856_1062" style="mask-type:alpha" maskUnits="userSpaceOnUse" x="105" y="23" width="320" height="116">
<path d="M105.014 27.7095L105.514 137.505L137.139 137.349C148.129 137.295 155.353 136.587 158.895 135.258C162.437 133.929 165.002 131.477 166.586 127.897C167.899 125.009 168.66 120.843 168.892 115.46C165.441 106.945 164.692 97.3509 166.951 88.162C166.537 87.1301 166.026 86.2009 165.484 85.3817C163.218 81.9112 158.96 79.4413 152.636 77.9802C158.298 76.5959 162.077 74.6548 163.969 72.1133C165.905 69.5716 166.845 65.0552 166.816 58.6344C166.773 49.139 165.378 42.2931 162.633 38.056C159.888 33.774 156.288 30.9377 151.825 29.5579C147.406 28.178 140.887 27.533 132.277 27.5753L105.014 27.7095V27.7095ZM328.798 26.608L329.298 136.403L356.288 136.271L355.788 26.4752L328.798 26.608ZM254.451 34.7694C255.955 35.8409 257.16 36.8188 258.1 37.7279C259.872 39.443 260.903 40.944 261.121 42.7683C261.34 44.5926 260.281 46.2454 259.414 46.9343C259.158 47.1373 259.15 47.092 258.915 47.2202L249.316 64.6537L249.518 108.921C249.558 117.874 249.835 123.581 250.322 126.02C250.809 128.414 252.031 130.538 253.987 132.428C255.942 134.272 258.173 135.455 260.728 135.985C263.283 136.47 267.574 136.707 273.545 136.678L284.132 136.626L284.066 122.122C279.783 122.143 277.309 121.794 276.7 121.119C276.135 120.443 275.864 117.125 275.837 111.201L275.618 63.0596L282.661 63.0249L282.596 48.8044L275.553 48.8391L275.489 34.6659L254.451 34.7694ZM289.666 34.5961L289.73 48.7693L284.096 48.7971L284.161 63.0176L289.795 62.9898L290.003 108.722C290.044 117.675 290.321 123.382 290.808 125.821C291.295 128.215 292.517 130.339 294.472 132.228C296.428 134.073 298.704 135.255 301.259 135.786C303.814 136.27 308.06 136.508 314.031 136.479L324.618 136.426L324.552 121.923C320.268 121.944 317.795 121.595 317.186 120.919C316.62 120.244 316.35 116.926 316.323 111.002L316.104 62.8603L323.192 62.8254L323.127 48.605L316.039 48.6398L315.974 34.4666L289.666 34.5961ZM393.448 44.432C387.434 44.4617 382.089 45.7314 377.471 48.1957C372.852 50.6151 369.58 54.1089 367.567 58.6857C365.555 63.2174 364.526 69.4002 364.562 77.2678L364.682 103.536C364.712 110.228 365.19 115.314 366.115 118.836C367.039 122.313 368.716 125.522 371.066 128.45C373.459 131.332 376.755 133.599 381.003 135.251C385.25 136.903 390.152 137.71 395.691 137.683C401.402 137.655 406.145 136.801 409.901 135.109C413.701 133.372 416.821 130.813 419.272 127.409C421.723 124.006 423.273 120.83 423.909 117.843C424.588 114.855 424.875 110.549 424.85 104.988L424.82 98.3261L399.965 98.4484L400.019 110.354C400.04 114.83 399.746 117.844 399.061 119.43C398.419 120.97 397.063 121.755 395.073 121.764C393.472 121.772 392.406 121.205 391.839 120.032C391.271 118.859 390.958 116.216 390.939 112.147L390.851 92.6821L424.793 92.5151L424.739 80.5623C424.699 71.8356 423.707 65.0923 421.739 60.3089C419.813 55.4802 416.46 51.6538 411.644 48.7835C406.871 45.8679 400.804 44.3959 393.448 44.432ZM132.408 46.331C135.22 46.3625 137.137 46.5603 138.091 46.9172C139.087 47.2741 139.853 48.1526 140.465 49.5513C141.077 50.9049 141.391 53.2915 141.407 56.7279C141.436 63.2391 141.1 67.2335 140.371 68.6388C139.641 69.999 137.928 70.6824 135.245 70.6956C134.596 70.6988 133.687 70.7047 132.519 70.7561L132.408 46.3309L132.408 46.331ZM394.748 60.3945C396.219 60.3873 397.183 61.0576 397.665 62.4116C398.147 63.7659 398.412 66.7745 398.433 71.4317L398.463 77.9986L390.784 78.0364L390.754 71.4695C390.731 66.4053 390.966 63.2917 391.393 62.159C391.821 60.9814 392.931 60.4035 394.748 60.3945ZM132.597 87.8586C136.665 87.9743 139.191 88.5322 140.148 89.5223C141.104 90.5124 141.574 93.3641 141.595 98.0665L141.642 108.271C141.662 112.702 141.166 115.506 140.089 116.641C139.056 117.777 136.587 118.413 132.737 118.567L132.597 87.8586Z" fill="black"/>
<path d="M239.415 28.6883C223.756 19.3907 225.702 26.6941 225.702 26.6941L208.172 58.6126C194.306 58.1359 180.644 65.4799 173.29 78.8691C162.713 98.1276 169.194 122.681 187.716 133.679C206.239 144.677 229.832 137.979 240.409 118.721C247.763 105.332 246.903 89.3652 239.462 77.1914L256.993 45.2728C256.993 45.2728 264.031 43.3041 248.372 34.0066L239.415 28.6883V28.6883Z" fill="url(#paint0_linear_856_1062)"/>
<path opacity="0.75" d="M207.012 133.78C225.507 133.689 240.429 118.026 240.341 98.7961C240.254 79.5659 225.19 64.0505 206.694 64.1416C188.199 64.2326 173.277 79.8955 173.365 99.1257C173.452 118.356 188.516 133.871 207.012 133.78Z" fill="url(#paint1_radial_856_1062)"/>
<path d="M209.887 61.6062C187.528 59.0953 167.019 82.0409 171.643 104.977C174.639 128.469 201.696 143.205 221.978 132.462C241.726 123.62 248.998 95.1427 236.041 77.2574C242.047 65.6957 249.907 53.5702 254.739 42.2512C246.872 36.0843 238.073 30.524 228.86 27.1183C228.86 27.1183 215.966 50.4531 209.887 61.6062Z" fill="white"/>
<mask id="mask1_856_1062" style="mask-type:alpha" maskUnits="userSpaceOnUse" x="170" y="27" width="85" height="110">
<path d="M209.888 61.606C187.528 59.0951 167.02 82.0407 171.643 104.976C174.64 128.469 201.697 143.205 221.979 132.462C241.727 123.62 248.998 95.1424 236.041 77.2572C242.047 65.6954 249.907 53.57 254.739 42.2509C246.873 36.084 238.074 30.5237 228.861 27.1181C228.861 27.1181 215.967 50.4528 209.888 61.606Z" fill="white"/>
</mask>
<g mask="url(#mask1_856_1062)">
<path d="M209.38 87.0207C191.137 87.1105 184.961 94.0823 174.45 89.9801C163.94 85.8779 165.839 86.6952 162.517 85.2468L162.748 135.994L252.307 135.553L252.127 96.1446C252.127 96.1446 247.583 98.4264 240.183 95.893C232.782 93.3595 224.309 86.9472 209.38 87.0207L209.38 87.0207V87.0207Z" fill="url(#paint2_linear_856_1062)"/>
<path d="M219.647 79.982C221.572 82.1603 224.832 82.3032 226.927 80.3013C229.022 78.2993 229.159 74.9106 227.234 72.7323C225.308 70.5539 222.049 70.411 219.954 72.4129C217.859 74.4149 217.722 77.8037 219.647 79.982Z" fill="#00C3A1"/>
<path d="M221.209 90.5108C222.171 91.5999 223.801 91.6714 224.848 90.6704C225.896 89.6695 225.965 87.9751 225.002 86.8859C224.039 85.7967 222.41 85.7253 221.362 86.7263C220.315 87.7272 220.246 89.4216 221.209 90.5108Z" fill="#00C3A1"/>
<path d="M203.115 90.8819C206.003 94.1494 210.892 94.3638 214.035 91.3609C217.177 88.3579 217.384 83.2748 214.496 80.0073C211.607 76.7399 206.719 76.5254 203.576 79.5284C200.433 82.5313 200.227 87.6145 203.115 90.8819Z" fill="#00C3A1"/>
<path d="M209.141 73.1038C210.103 74.193 211.733 74.2644 212.781 73.2635C213.828 72.2625 213.897 70.5681 212.934 69.4789C211.971 68.3898 210.342 68.3183 209.294 69.3193C208.247 70.3203 208.178 72.0147 209.141 73.1038Z" fill="#00C3A1"/>
<path d="M190.143 94.448C192.069 96.6263 195.328 96.7693 197.423 94.7673C199.518 92.7654 199.655 89.3766 197.73 87.1983C195.805 85.02 192.545 84.8771 190.45 86.879C188.355 88.881 188.218 92.2697 190.143 94.448Z" fill="#00C3A1"/>
</g>
<g opacity="0.75">
<path opacity="0.75" d="M207.011 133.78C225.506 133.689 240.428 118.026 240.341 98.7961C240.253 79.5659 225.189 64.0505 206.694 64.1416C188.199 64.2326 173.277 79.8955 173.364 99.1257C173.452 118.356 188.516 133.871 207.011 133.78Z" fill="url(#paint3_radial_856_1062)"/>
<path opacity="0.75" d="M207.011 133.78C225.506 133.689 240.428 118.026 240.341 98.7961C240.253 79.5659 225.189 64.0505 206.694 64.1416C188.199 64.2326 173.277 79.8955 173.364 99.1257C173.452 118.356 188.516 133.871 207.011 133.78Z" fill="url(#paint4_radial_856_1062)"/>
</g>
</mask>
<g mask="url(#mask0_856_1062)">
<rect x="94.0684" y="8.79492" width="346.16" height="143.967" fill="white"/>
</g>
<mask id="mask2_856_1062" style="mask-type:alpha" maskUnits="userSpaceOnUse" x="113" y="23" width="320" height="116">
<path d="M113.014 27.7095L113.514 137.505L145.139 137.349C156.129 137.295 163.353 136.587 166.895 135.258C170.437 133.929 173.002 131.477 174.586 127.897C175.899 125.009 176.66 120.843 176.892 115.46C173.441 106.945 172.692 97.3509 174.951 88.162C174.537 87.1301 174.026 86.2009 173.484 85.3817C171.218 81.9112 166.96 79.4413 160.636 77.9802C166.298 76.5959 170.077 74.6548 171.969 72.1133C173.905 69.5716 174.845 65.0552 174.816 58.6344C174.773 49.139 173.378 42.2931 170.633 38.056C167.888 33.774 164.288 30.9377 159.825 29.5579C155.406 28.178 148.887 27.533 140.277 27.5753L113.014 27.7095V27.7095ZM336.798 26.608L337.298 136.403L364.288 136.271L363.788 26.4752L336.798 26.608ZM262.451 34.7694C263.955 35.8409 265.16 36.8188 266.1 37.7279C267.872 39.443 268.903 40.944 269.121 42.7683C269.34 44.5926 268.281 46.2454 267.414 46.9343C267.158 47.1373 267.15 47.092 266.915 47.2202L257.316 64.6537L257.518 108.921C257.558 117.874 257.835 123.581 258.322 126.02C258.809 128.414 260.031 130.538 261.987 132.428C263.942 134.272 266.173 135.455 268.728 135.985C271.283 136.47 275.574 136.707 281.545 136.678L292.132 136.626L292.066 122.122C287.783 122.143 285.309 121.794 284.7 121.119C284.135 120.443 283.864 117.125 283.837 111.201L283.618 63.0596L290.661 63.0249L290.596 48.8044L283.553 48.8391L283.489 34.6659L262.451 34.7694ZM297.666 34.5961L297.73 48.7693L292.096 48.7971L292.161 63.0176L297.795 62.9898L298.003 108.722C298.044 117.675 298.321 123.382 298.808 125.821C299.295 128.215 300.517 130.339 302.472 132.228C304.428 134.073 306.704 135.255 309.259 135.786C311.814 136.27 316.06 136.508 322.031 136.479L332.618 136.426L332.552 121.923C328.268 121.944 325.795 121.595 325.186 120.919C324.62 120.244 324.35 116.926 324.323 111.002L324.104 62.8603L331.192 62.8254L331.127 48.605L324.039 48.6398L323.974 34.4666L297.666 34.5961ZM401.448 44.432C395.434 44.4617 390.089 45.7314 385.471 48.1957C380.852 50.6151 377.58 54.1089 375.567 58.6857C373.555 63.2174 372.526 69.4002 372.562 77.2678L372.682 103.536C372.712 110.228 373.19 115.314 374.115 118.836C375.039 122.313 376.716 125.522 379.066 128.45C381.459 131.332 384.755 133.599 389.003 135.251C393.25 136.903 398.152 137.71 403.691 137.683C409.402 137.655 414.145 136.801 417.901 135.109C421.701 133.372 424.821 130.813 427.272 127.409C429.723 124.006 431.273 120.83 431.909 117.843C432.588 114.855 432.875 110.549 432.85 104.988L432.82 98.3261L407.965 98.4484L408.019 110.354C408.04 114.83 407.746 117.844 407.061 119.43C406.419 120.97 405.063 121.755 403.073 121.764C401.472 121.772 400.406 121.205 399.839 120.032C399.271 118.859 398.958 116.216 398.939 112.147L398.851 92.6821L432.793 92.5151L432.739 80.5623C432.699 71.8356 431.707 65.0923 429.739 60.3089C427.813 55.4802 424.46 51.6538 419.644 48.7835C414.871 45.8679 408.804 44.3959 401.448 44.432ZM140.408 46.331C143.22 46.3625 145.137 46.5603 146.091 46.9172C147.087 47.2741 147.853 48.1526 148.465 49.5513C149.077 50.9049 149.391 53.2915 149.407 56.7279C149.436 63.2391 149.1 67.2335 148.371 68.6388C147.641 69.999 145.928 70.6824 143.245 70.6956C142.596 70.6988 141.687 70.7047 140.519 70.7561L140.408 46.3309L140.408 46.331ZM402.748 60.3945C404.219 60.3873 405.183 61.0576 405.665 62.4116C406.147 63.7659 406.412 66.7745 406.433 71.4317L406.463 77.9986L398.784 78.0364L398.754 71.4695C398.731 66.4053 398.966 63.2917 399.393 62.159C399.821 60.9814 400.931 60.4035 402.748 60.3945ZM140.597 87.8586C144.665 87.9743 147.191 88.5322 148.148 89.5223C149.104 90.5124 149.574 93.3641 149.595 98.0665L149.642 108.271C149.662 112.702 149.166 115.506 148.089 116.641C147.056 117.777 144.587 118.413 140.737 118.567L140.597 87.8586Z" fill="black"/>
<path d="M247.415 28.6883C231.756 19.3907 233.702 26.6941 233.702 26.6941L216.172 58.6126C202.306 58.1359 188.644 65.4799 181.29 78.8691C170.713 98.1276 177.194 122.681 195.716 133.679C214.239 144.677 237.832 137.979 248.409 118.721C255.763 105.332 254.903 89.3652 247.462 77.1914L264.993 45.2728C264.993 45.2728 272.031 43.3041 256.372 34.0066L247.415 28.6883V28.6883Z" fill="url(#paint5_linear_856_1062)"/>
<path opacity="0.75" d="M215.012 133.78C233.507 133.689 248.429 118.026 248.341 98.7961C248.254 79.5659 233.19 64.0505 214.694 64.1416C196.199 64.2326 181.277 79.8955 181.365 99.1257C181.452 118.356 196.516 133.871 215.012 133.78Z" fill="url(#paint6_radial_856_1062)"/>
<path d="M217.887 61.6062C195.528 59.0953 175.019 82.0409 179.643 104.977C182.639 128.469 209.696 143.205 229.978 132.462C249.726 123.62 256.998 95.1427 244.041 77.2574C250.047 65.6957 257.907 53.5702 262.739 42.2512C254.872 36.0843 246.073 30.524 236.86 27.1183C236.86 27.1183 223.966 50.4531 217.887 61.6062Z" fill="white"/>
<mask id="mask3_856_1062" style="mask-type:alpha" maskUnits="userSpaceOnUse" x="178" y="27" width="85" height="110">
<path d="M217.888 61.606C195.528 59.0951 175.02 82.0407 179.643 104.976C182.64 128.469 209.697 143.205 229.979 132.462C249.727 123.62 256.998 95.1424 244.041 77.2572C250.047 65.6954 257.907 53.57 262.739 42.2509C254.873 36.084 246.074 30.5237 236.861 27.1181C236.861 27.1181 223.967 50.4528 217.888 61.606Z" fill="white"/>
</mask>
<g mask="url(#mask3_856_1062)">
<path d="M217.38 87.0207C199.137 87.1105 192.961 94.0823 182.45 89.9801C171.94 85.8779 173.839 86.6952 170.517 85.2468L170.748 135.994L260.307 135.553L260.127 96.1446C260.127 96.1446 255.583 98.4264 248.183 95.893C240.782 93.3595 232.309 86.9472 217.38 87.0207L217.38 87.0207V87.0207Z" fill="url(#paint7_linear_856_1062)"/>
<path d="M227.647 79.982C229.572 82.1603 232.832 82.3032 234.927 80.3013C237.022 78.2993 237.159 74.9106 235.234 72.7323C233.308 70.5539 230.049 70.411 227.954 72.4129C225.859 74.4149 225.722 77.8037 227.647 79.982Z" fill="#00C3A1"/>
<path d="M229.209 90.5108C230.171 91.5999 231.801 91.6714 232.848 90.6704C233.896 89.6695 233.965 87.9751 233.002 86.8859C232.039 85.7967 230.41 85.7253 229.362 86.7263C228.315 87.7272 228.246 89.4216 229.209 90.5108Z" fill="#00C3A1"/>
<path d="M211.115 90.8819C214.003 94.1494 218.892 94.3638 222.035 91.3609C225.177 88.3579 225.384 83.2748 222.496 80.0073C219.607 76.7399 214.719 76.5254 211.576 79.5284C208.433 82.5313 208.227 87.6145 211.115 90.8819Z" fill="#00C3A1"/>
<path d="M217.141 73.1038C218.103 74.193 219.733 74.2644 220.781 73.2635C221.828 72.2625 221.897 70.5681 220.934 69.4789C219.971 68.3898 218.342 68.3183 217.294 69.3193C216.247 70.3203 216.178 72.0147 217.141 73.1038Z" fill="#00C3A1"/>
<path d="M198.143 94.448C200.069 96.6263 203.328 96.7693 205.423 94.7673C207.518 92.7654 207.655 89.3766 205.73 87.1983C203.805 85.02 200.545 84.8771 198.45 86.879C196.355 88.881 196.218 92.2697 198.143 94.448Z" fill="#00C3A1"/>
</g>
<g opacity="0.75">
<path opacity="0.75" d="M215.011 133.78C233.506 133.689 248.428 118.026 248.341 98.7961C248.253 79.5659 233.189 64.0505 214.694 64.1416C196.199 64.2326 181.277 79.8955 181.364 99.1257C181.452 118.356 196.516 133.871 215.011 133.78Z" fill="url(#paint8_radial_856_1062)"/>
<path opacity="0.75" d="M215.011 133.78C233.506 133.689 248.428 118.026 248.341 98.7961C248.253 79.5659 233.189 64.0505 214.694 64.1416C196.199 64.2326 181.277 79.8955 181.364 99.1257C181.452 118.356 196.516 133.871 215.011 133.78Z" fill="url(#paint9_radial_856_1062)"/>
</g>
</mask>
<g mask="url(#mask2_856_1062)">
<rect x="102.068" y="8.79492" width="346.16" height="143.967" fill="white"/>
</g>
<mask id="mask4_856_1062" style="mask-type:alpha" maskUnits="userSpaceOnUse" x="113" y="29" width="320" height="116">
<path d="M113.014 33.7095L113.514 143.505L145.139 143.349C156.129 143.295 163.353 142.587 166.895 141.258C170.437 139.929 173.002 137.477 174.586 133.897C175.899 131.009 176.66 126.843 176.892 121.46C173.441 112.945 172.692 103.351 174.951 94.162C174.537 93.1301 174.026 92.2009 173.484 91.3817C171.218 87.9112 166.96 85.4413 160.636 83.9802C166.298 82.5959 170.077 80.6548 171.969 78.1133C173.905 75.5716 174.845 71.0552 174.816 64.6344C174.773 55.139 173.378 48.2931 170.633 44.056C167.888 39.774 164.288 36.9377 159.825 35.5579C155.406 34.178 148.887 33.533 140.277 33.5753L113.014 33.7095V33.7095ZM336.798 32.608L337.298 142.403L364.288 142.271L363.788 32.4752L336.798 32.608ZM262.451 40.7694C263.955 41.8409 265.16 42.8188 266.1 43.7279C267.872 45.443 268.903 46.944 269.121 48.7683C269.34 50.5926 268.281 52.2454 267.414 52.9343C267.158 53.1373 267.15 53.092 266.915 53.2202L257.316 70.6537L257.518 114.921C257.558 123.874 257.835 129.581 258.322 132.02C258.809 134.414 260.031 136.538 261.987 138.428C263.942 140.272 266.173 141.455 268.728 141.985C271.283 142.47 275.574 142.707 281.545 142.678L292.132 142.626L292.066 128.122C287.783 128.143 285.309 127.794 284.7 127.119C284.135 126.443 283.864 123.125 283.837 117.201L283.618 69.0596L290.661 69.0249L290.596 54.8044L283.553 54.8391L283.489 40.6659L262.451 40.7694ZM297.666 40.5961L297.73 54.7693L292.096 54.7971L292.161 69.0176L297.795 68.9898L298.003 114.722C298.044 123.675 298.321 129.382 298.808 131.821C299.295 134.215 300.517 136.339 302.472 138.228C304.428 140.073 306.704 141.255 309.259 141.786C311.814 142.27 316.06 142.508 322.031 142.479L332.618 142.426L332.552 127.923C328.268 127.944 325.795 127.595 325.186 126.919C324.62 126.244 324.35 122.926 324.323 117.002L324.104 68.8603L331.192 68.8254L331.127 54.605L324.039 54.6398L323.974 40.4666L297.666 40.5961ZM401.448 50.432C395.434 50.4617 390.089 51.7314 385.471 54.1957C380.852 56.6151 377.58 60.1089 375.567 64.6857C373.555 69.2174 372.526 75.4002 372.562 83.2678L372.682 109.536C372.712 116.228 373.19 121.314 374.115 124.836C375.039 128.313 376.716 131.522 379.066 134.45C381.459 137.332 384.755 139.599 389.003 141.251C393.25 142.903 398.152 143.71 403.691 143.683C409.402 143.655 414.145 142.801 417.901 141.109C421.701 139.372 424.821 136.813 427.272 133.409C429.723 130.006 431.273 126.83 431.909 123.843C432.588 120.855 432.875 116.549 432.85 110.988L432.82 104.326L407.965 104.448L408.019 116.354C408.04 120.83 407.746 123.844 407.061 125.43C406.419 126.97 405.063 127.755 403.073 127.764C401.472 127.772 400.406 127.205 399.839 126.032C399.271 124.859 398.958 122.216 398.939 118.147L398.851 98.6821L432.793 98.5151L432.739 86.5623C432.699 77.8356 431.707 71.0923 429.739 66.3089C427.813 61.4802 424.46 57.6538 419.644 54.7835C414.871 51.8679 408.804 50.3959 401.448 50.432ZM140.408 52.331C143.22 52.3625 145.137 52.5603 146.091 52.9172C147.087 53.2741 147.853 54.1526 148.465 55.5513C149.077 56.9049 149.391 59.2915 149.407 62.7279C149.436 69.2391 149.1 73.2335 148.371 74.6388C147.641 75.999 145.928 76.6824 143.245 76.6956C142.596 76.6988 141.687 76.7047 140.519 76.7561L140.408 52.3309L140.408 52.331ZM402.748 66.3945C404.219 66.3873 405.183 67.0576 405.665 68.4116C406.147 69.7659 406.412 72.7745 406.433 77.4317L406.463 83.9986L398.784 84.0364L398.754 77.4695C398.731 72.4053 398.966 69.2917 399.393 68.159C399.821 66.9814 400.931 66.4035 402.748 66.3945ZM140.597 93.8586C144.665 93.9743 147.191 94.5322 148.148 95.5223C149.104 96.5124 149.574 99.3641 149.595 104.067L149.642 114.271C149.662 118.702 149.166 121.506 148.089 122.641C147.056 123.777 144.587 124.413 140.737 124.567L140.597 93.8586Z" fill="black"/>
<path d="M247.415 34.6883C231.756 25.3907 233.702 32.6941 233.702 32.6941L216.172 64.6126C202.306 64.1359 188.644 71.4799 181.29 84.8691C170.713 104.128 177.194 128.681 195.716 139.679C214.239 150.677 237.832 143.979 248.409 124.721C255.763 111.332 254.903 95.3652 247.462 83.1914L264.993 51.2728C264.993 51.2728 272.031 49.3041 256.372 40.0066L247.415 34.6883V34.6883Z" fill="url(#paint10_linear_856_1062)"/>
<path opacity="0.75" d="M215.012 139.78C233.507 139.689 248.429 124.026 248.341 104.796C248.254 85.5659 233.19 70.0505 214.694 70.1416C196.199 70.2326 181.277 85.8955 181.365 105.126C181.452 124.356 196.516 139.871 215.012 139.78Z" fill="url(#paint11_radial_856_1062)"/>
<path d="M217.887 67.6062C195.528 65.0953 175.019 88.0409 179.643 110.977C182.639 134.469 209.696 149.205 229.978 138.462C249.726 129.62 256.998 101.143 244.041 83.2574C250.047 71.6957 257.907 59.5702 262.739 48.2512C254.872 42.0843 246.073 36.524 236.86 33.1183C236.86 33.1183 223.966 56.4531 217.887 67.6062Z" fill="white"/>
<mask id="mask5_856_1062" style="mask-type:alpha" maskUnits="userSpaceOnUse" x="178" y="33" width="85" height="110">
<path d="M217.888 67.606C195.528 65.0951 175.02 88.0407 179.643 110.976C182.64 134.469 209.697 149.205 229.979 138.462C249.727 129.62 256.998 101.142 244.041 83.2572C250.047 71.6954 257.907 59.57 262.739 48.2509C254.873 42.084 246.074 36.5237 236.861 33.1181C236.861 33.1181 223.967 56.4528 217.888 67.606Z" fill="white"/>
</mask>
<g mask="url(#mask5_856_1062)">
<path d="M217.38 93.0207C199.137 93.1105 192.961 100.082 182.45 95.9801C171.94 91.8779 173.839 92.6952 170.517 91.2468L170.748 141.994L260.307 141.553L260.127 102.145C260.127 102.145 255.583 104.426 248.183 101.893C240.782 99.3595 232.309 92.9472 217.38 93.0207L217.38 93.0207V93.0207Z" fill="url(#paint12_linear_856_1062)"/>
<path d="M227.647 85.982C229.572 88.1603 232.832 88.3032 234.927 86.3013C237.022 84.2993 237.159 80.9106 235.234 78.7323C233.308 76.5539 230.049 76.411 227.954 78.4129C225.859 80.4149 225.722 83.8037 227.647 85.982Z" fill="#00C3A1"/>
<path d="M229.209 96.5108C230.171 97.5999 231.801 97.6714 232.848 96.6704C233.896 95.6695 233.965 93.9751 233.002 92.8859C232.039 91.7967 230.41 91.7253 229.362 92.7263C228.315 93.7272 228.246 95.4216 229.209 96.5108Z" fill="#00C3A1"/>
<path d="M211.115 96.8819C214.003 100.149 218.892 100.364 222.035 97.3609C225.177 94.3579 225.384 89.2748 222.496 86.0073C219.607 82.7399 214.719 82.5254 211.576 85.5284C208.433 88.5313 208.227 93.6145 211.115 96.8819Z" fill="#00C3A1"/>
<path d="M217.141 79.1038C218.103 80.193 219.733 80.2644 220.781 79.2635C221.828 78.2625 221.897 76.5681 220.934 75.4789C219.971 74.3898 218.342 74.3183 217.294 75.3193C216.247 76.3203 216.178 78.0147 217.141 79.1038Z" fill="#00C3A1"/>
<path d="M198.143 100.448C200.069 102.626 203.328 102.769 205.423 100.767C207.518 98.7654 207.655 95.3766 205.73 93.1983C203.805 91.02 200.545 90.8771 198.45 92.879C196.355 94.881 196.218 98.2697 198.143 100.448Z" fill="#00C3A1"/>
</g>
<g opacity="0.75">
<path opacity="0.75" d="M215.011 139.78C233.506 139.689 248.428 124.026 248.341 104.796C248.253 85.5659 233.189 70.0505 214.694 70.1416C196.199 70.2326 181.277 85.8955 181.364 105.126C181.452 124.356 196.516 139.871 215.011 139.78Z" fill="url(#paint13_radial_856_1062)"/>
<path opacity="0.75" d="M215.011 139.78C233.506 139.689 248.428 124.026 248.341 104.796C248.253 85.5659 233.189 70.0505 214.694 70.1416C196.199 70.2326 181.277 85.8955 181.364 105.126C181.452 124.356 196.516 139.871 215.011 139.78Z" fill="url(#paint14_radial_856_1062)"/>
</g>
</mask>
<g mask="url(#mask4_856_1062)">
<rect x="102.068" y="14.7949" width="346.16" height="143.967" fill="white"/>
</g>
<path d="M110.522 30.781L111.017 135.271L142.31 135.123C153.184 135.071 160.332 134.397 163.837 133.132C167.342 131.868 169.879 129.534 171.447 126.127C172.747 123.379 173.5 119.414 173.729 114.291C170.314 106.188 169.573 97.0571 171.808 88.3122C171.398 87.3302 170.893 86.446 170.357 85.6663C168.115 82.3635 163.901 80.013 157.644 78.6225C163.246 77.3051 166.986 75.4578 168.858 73.0391C170.773 70.6203 171.704 66.322 171.675 60.2115C171.632 51.175 170.252 44.6599 167.536 40.6276C164.819 36.5525 161.257 33.8533 156.841 32.5401C152.468 31.2269 146.018 30.6131 137.499 30.6533L110.522 30.781V30.781ZM331.956 29.7328L332.45 134.223L359.157 134.096L358.663 29.6064L331.956 29.7328ZM258.389 37.4998C259.877 38.5195 261.07 39.4501 262 40.3153C263.754 41.9475 264.774 43.376 264.99 45.1121C265.206 46.8482 264.158 48.4212 263.3 49.0768C263.047 49.2701 263.04 49.2269 262.807 49.3489L253.308 65.9399L253.508 108.069C253.548 116.589 253.822 122.02 254.304 124.341C254.786 126.62 255.995 128.641 257.93 130.439C259.865 132.194 262.072 133.32 264.601 133.824C267.129 134.286 271.375 134.512 277.283 134.484L287.759 134.434L287.694 120.631C283.455 120.651 281.008 120.319 280.405 119.676C279.846 119.034 279.578 115.875 279.551 110.238L279.334 64.4229L286.303 64.3899L286.239 50.8566L279.27 50.8896L279.206 37.4012L258.389 37.4998ZM293.234 37.3348L293.298 50.8232L287.723 50.8496L287.787 64.3829L293.362 64.3565L293.568 107.879C293.609 116.399 293.883 121.83 294.365 124.151C294.846 126.43 296.055 128.451 297.991 130.249C299.925 132.004 302.178 133.13 304.706 133.634C307.234 134.096 311.435 134.322 317.343 134.294L327.819 134.244L327.754 120.441C323.516 120.461 321.068 120.129 320.466 119.487C319.906 118.844 319.638 115.686 319.612 110.049L319.395 64.2333L326.409 64.2001L326.345 50.6668L319.331 50.7L319.267 37.2116L293.234 37.3348ZM395.927 46.6954C389.976 46.7237 384.687 47.932 380.118 50.2773C375.548 52.5797 372.31 55.9047 370.318 60.2603C368.326 64.5731 367.309 70.4571 367.344 77.9446L367.463 102.943C367.493 109.312 367.966 114.152 368.881 117.504C369.795 120.813 371.455 123.867 373.78 126.653C376.147 129.396 379.409 131.554 383.612 133.126C387.815 134.698 392.666 135.466 398.146 135.44C403.797 135.414 408.49 134.6 412.207 132.991C415.967 131.338 419.055 128.902 421.48 125.663C423.905 122.424 425.439 119.402 426.068 116.559C426.739 113.716 427.024 109.618 426.999 104.325L426.969 97.9852L402.375 98.1016L402.429 109.432C402.449 113.692 402.159 116.56 401.481 118.069C400.845 119.535 399.504 120.282 397.535 120.291C395.951 120.298 394.896 119.759 394.334 118.642C393.773 117.526 393.463 115.011 393.445 111.138L393.357 92.614L426.943 92.455L426.889 81.0798C426.85 72.7748 425.868 66.3574 423.92 61.8051C422.015 57.2097 418.697 53.5682 413.932 50.8366C409.209 48.062 403.205 46.6611 395.927 46.6954ZM137.628 48.5027C140.411 48.5327 142.308 48.7209 143.251 49.0606C144.237 49.4002 144.995 50.2363 145.601 51.5673C146.206 52.8555 146.517 55.1269 146.533 58.3972C146.562 64.5938 146.229 68.3951 145.507 69.7325C144.785 71.0269 143.09 71.6774 140.436 71.6899C139.793 71.693 138.894 71.6986 137.738 71.7475L137.628 48.5026L137.628 48.5027ZM397.213 61.8866C398.669 61.8797 399.623 62.5176 400.1 63.8063C400.577 65.095 400.839 67.9583 400.86 72.3904L400.889 78.64L393.291 78.676L393.261 72.4264C393.239 67.607 393.471 64.6438 393.894 63.5659C394.317 62.4451 395.415 61.8951 397.213 61.8866ZM137.815 88.0235C141.84 88.1337 144.34 88.6646 145.286 89.6068C146.233 90.5491 146.698 93.263 146.719 97.7382L146.765 107.45C146.785 111.667 146.294 114.335 145.229 115.415C144.206 116.496 141.763 117.101 137.954 117.248L137.815 88.0235Z" fill="black"/>
<path d="M243.511 31.7128C228.017 22.8644 229.943 29.8149 229.943 29.8149L212.596 60.191C198.876 59.7373 185.357 66.7265 178.081 79.4686C167.615 97.7965 174.028 121.164 192.356 131.63C210.683 142.096 234.029 135.722 244.495 117.395C251.771 104.652 250.921 89.4576 243.558 77.872L260.904 47.4958C260.904 47.4958 267.869 45.6223 252.374 36.774L243.511 31.7128V31.7128Z" fill="url(#paint15_linear_856_1062)"/>
<path opacity="0.75" d="M211.448 131.726C229.749 131.64 244.515 116.734 244.428 98.4329C244.341 80.132 229.435 65.3664 211.134 65.453C192.833 65.5396 178.068 80.4457 178.154 98.7466C178.241 117.048 193.147 131.813 211.448 131.726Z" fill="url(#paint16_radial_856_1062)"/>
<path d="M214.294 63.0399C192.169 60.6503 171.876 82.4872 176.451 104.315C179.416 126.672 206.189 140.696 226.258 130.472C245.798 122.057 252.993 94.9558 240.172 77.9348C246.115 66.9317 253.893 55.3922 258.674 44.6202C250.89 38.7513 242.184 33.4597 233.067 30.2186C233.067 30.2186 220.309 52.4257 214.294 63.0399Z" fill="white"/>
<mask id="mask6_856_1062" style="mask-type:alpha" maskUnits="userSpaceOnUse" x="175" y="30" width="84" height="104">
<path d="M214.294 63.0397C192.17 60.6501 171.877 82.4869 176.451 104.314C179.416 126.671 206.189 140.695 226.258 130.471C245.799 122.057 252.994 94.9555 240.173 77.9346C246.116 66.9315 253.893 55.392 258.674 44.6199C250.891 38.751 242.184 33.4594 233.068 30.2184C233.068 30.2184 220.309 52.4255 214.294 63.0397Z" fill="white"/>
</mask>
<g mask="url(#mask6_856_1062)">
<path d="M213.791 87.226C195.741 87.3115 189.629 93.9464 179.229 90.0424C168.828 86.1384 170.708 86.9163 167.421 85.5378L167.65 133.833L256.268 133.413L256.09 95.909C256.09 95.909 251.593 98.0805 244.271 95.6695C236.948 93.2585 228.564 87.1561 213.791 87.226L213.791 87.226V87.226Z" fill="url(#paint17_linear_856_1062)"/>
<path d="M223.951 80.5275C225.857 82.6005 229.082 82.7366 231.155 80.8314C233.228 78.9261 233.364 75.7011 231.458 73.6281C229.553 71.555 226.328 71.419 224.255 73.3242C222.182 75.2294 222.046 78.4544 223.951 80.5275Z" fill="#00C3A1"/>
<path d="M225.496 90.5475C226.449 91.584 228.061 91.652 229.098 90.6994C230.134 89.7468 230.202 88.1343 229.25 87.0977C228.297 86.0612 226.685 85.9932 225.648 86.9458C224.612 87.8984 224.544 89.5109 225.496 90.5475Z" fill="#00C3A1"/>
<path d="M207.593 90.9009C210.451 94.0104 215.288 94.2145 218.398 91.3567C221.507 88.4988 221.712 83.6613 218.854 80.5517C215.996 77.4422 211.158 77.2381 208.049 80.0959C204.939 82.9538 204.735 87.7913 207.593 90.9009Z" fill="#00C3A1"/>
<path d="M213.555 73.9818C214.508 75.0183 216.12 75.0863 217.157 74.1337C218.193 73.1811 218.261 71.5686 217.309 70.5321C216.356 69.4955 214.744 69.4275 213.707 70.3801C212.671 71.3327 212.603 72.9453 213.555 73.9818Z" fill="#00C3A1"/>
<path d="M194.757 94.2946C196.662 96.3676 199.887 96.5037 201.96 94.5984C204.033 92.6932 204.169 89.4682 202.264 87.3952C200.359 85.3221 197.134 85.1861 195.061 87.0913C192.988 88.9965 192.852 92.2215 194.757 94.2946Z" fill="#00C3A1"/>
</g>
<g opacity="0.75">
<path opacity="0.75" d="M211.448 131.726C229.749 131.64 244.515 116.734 244.428 98.4329C244.341 80.132 229.435 65.3664 211.134 65.453C192.833 65.5396 178.068 80.4457 178.154 98.7466C178.241 117.048 193.147 131.813 211.448 131.726Z" fill="url(#paint18_radial_856_1062)"/>
<path opacity="0.75" d="M211.448 131.726C229.749 131.64 244.515 116.734 244.428 98.4329C244.341 80.132 229.435 65.3664 211.134 65.453C192.833 65.5396 178.068 80.4457 178.154 98.7466C178.241 117.048 193.147 131.813 211.448 131.726Z" fill="url(#paint19_radial_856_1062)"/>
</g>
<path d="M83.008 175.471C72.979 172.053 4.19001 150.895 37.452 132.39C40.284 130.817 55.069 124.675 61.221 135.349C65.733 116.286 85.752 115.158 97.862 129.338C101.768 111.945 120.186 115.046 128.262 125.393C127.432 102.292 164.239 92.5022 167.354 118.923C177.022 99.7192 205.616 105.632 209.053 125.065C229.62 112.067 241.26 119.758 248.389 137.614C259.678 124.431 277.647 124.045 288.096 136.423C296.319 121.975 308.36 119.445 318.575 133.986C320.518 124.675 322.168 115.773 331.905 110.578C343.37 104.465 353.409 109.992 357.979 120.261C361.075 107.473 369.737 99.7532 382.92 98.5762C399.952 97.0722 403.477 106.862 408.555 117.683C419.463 101.364 456.749 107.365 453.584 130.227C453.936 127.663 465.459 119.514 482.745 120.368C495.03 120.988 501.866 133.156 504.61 132.409C510.391 130.822 516.026 130.344 520.313 137.741C527.881 150.812 517.842 166.848 507.491 174.66C495.557 183.644 480.655 188.483 466.456 192.512C448.711 197.556 427.217 201.115 409.209 202.741C320.577 210.759 227.422 199.089 141.924 181.726C122.881 177.853 101.377 181.73 83.008 175.471Z" fill="#FFFFFE"/>
<path d="M83.0082 175.471L83.6032 173.726C81.5422 173.024 77.1542 171.621 71.6852 169.661C63.4932 166.726 52.9062 162.539 44.4812 157.745C40.2702 155.353 36.6062 152.802 34.0872 150.271C32.8262 149.008 31.8562 147.755 31.2222 146.566C30.5862 145.373 30.2842 144.263 30.2842 143.199C30.2912 141.853 30.7432 140.491 31.9872 138.93C33.2302 137.381 35.2922 135.697 38.3482 134C38.6622 133.826 39.2462 133.536 39.9992 133.22C42.2612 132.259 46.1042 131.039 49.8082 131.047C51.7592 131.047 53.6552 131.375 55.3142 132.173C56.9752 132.976 58.4362 134.221 59.6242 136.269C60.0022 136.925 60.7392 137.282 61.4882 137.172C62.2372 137.063 62.8412 136.509 63.0152 135.773C64.1922 130.815 66.4302 127.304 69.2142 125.003C72.0032 122.705 75.3792 121.581 79.0132 121.576C84.8562 121.57 91.3612 124.562 96.4602 130.535C96.9142 131.067 97.6262 131.295 98.3052 131.127C98.9842 130.959 99.5072 130.424 99.6602 129.742C100.587 125.64 102.309 122.967 104.396 121.27C106.486 119.578 109.017 118.808 111.778 118.804C114.449 118.801 117.308 119.552 119.947 120.906C122.588 122.258 125.001 124.208 126.809 126.527C127.302 127.159 128.14 127.399 128.893 127.124C129.646 126.85 130.133 126.127 130.104 125.326C130.096 125.09 130.092 124.857 130.092 124.625C130.093 121.67 130.765 118.993 131.929 116.606C133.674 113.029 136.549 110.102 139.934 108.076C143.316 106.048 147.194 104.939 150.838 104.941C154.445 104.945 157.783 106.003 160.373 108.237C162.957 110.476 164.901 113.937 165.523 119.139C165.618 119.946 166.233 120.597 167.034 120.738C167.834 120.879 168.635 120.478 169 119.752C170.898 115.99 173.528 113.336 176.551 111.584C179.574 109.837 183.009 109.001 186.485 109.001C191.21 108.998 195.989 110.558 199.767 113.388C203.547 116.223 206.33 120.275 207.238 125.386C207.345 125.993 207.744 126.502 208.308 126.751C208.872 127.001 209.517 126.953 210.038 126.624C216.937 122.26 222.65 120.405 227.301 120.411C229.521 120.412 231.514 120.822 233.358 121.596C236.12 122.758 238.577 124.762 240.797 127.582C243.015 130.398 244.971 134.022 246.677 138.298C246.917 138.898 247.45 139.327 248.088 139.433C248.726 139.538 249.369 139.304 249.789 138.813C255.294 132.392 262.368 129.27 269.227 129.267C275.676 129.275 281.953 132.014 286.688 137.612C287.077 138.073 287.664 138.314 288.265 138.258C288.867 138.203 289.399 137.859 289.698 137.335C291.836 133.574 294.215 130.725 296.642 128.86C299.077 126.992 301.513 126.1 303.949 126.097C306.006 126.1 308.125 126.732 310.34 128.17C312.55 129.607 314.832 131.864 317.066 135.046C317.488 135.647 318.228 135.94 318.947 135.792C319.666 135.643 320.229 135.081 320.379 134.363C321.349 129.692 322.241 125.273 323.99 121.514C324.863 119.632 325.941 117.911 327.352 116.357C328.764 114.805 330.512 113.412 332.773 112.204C335.835 110.573 338.701 109.872 341.328 109.871C344.59 109.875 347.523 110.945 350.078 112.869C352.627 114.793 354.775 117.594 356.295 121.01C356.616 121.732 357.359 122.168 358.146 122.096C358.933 122.025 359.585 121.463 359.771 120.694C361.251 114.596 364.005 109.846 367.881 106.451C371.76 103.062 376.808 100.977 383.084 100.412C384.204 100.313 385.256 100.266 386.245 100.266C389.599 100.267 392.209 100.805 394.333 101.71C395.927 102.391 397.259 103.281 398.445 104.363C400.222 105.983 401.668 108.058 403.001 110.469C404.334 112.877 405.546 115.608 406.886 118.466C407.169 119.067 407.754 119.471 408.417 119.521C409.079 119.571 409.718 119.259 410.088 118.707C411.947 115.925 414.698 113.827 417.996 112.412C421.289 110.999 425.113 110.29 428.977 110.291C434.782 110.285 440.654 111.9 444.93 114.866C447.073 116.348 448.819 118.152 450.028 120.251C451.237 122.353 451.928 124.751 451.931 127.534C451.93 128.316 451.875 129.129 451.758 129.975C451.691 130.462 451.818 130.947 452.115 131.34C452.413 131.732 452.845 131.986 453.333 132.053C453.821 132.12 454.306 131.993 454.698 131.695C455.091 131.397 455.344 130.965 455.411 130.477L454.822 130.396L455.385 130.593L455.411 130.477L454.822 130.396L455.385 130.593L455.357 130.584L455.384 130.596L455.385 130.593L455.357 130.584L455.384 130.596C455.395 130.556 455.568 130.268 455.901 129.922C456.482 129.303 457.519 128.459 458.923 127.597C461.032 126.296 463.972 124.926 467.573 123.891C471.174 122.855 475.438 122.149 480.224 122.149C481.02 122.149 481.829 122.168 482.653 122.209C485.343 122.346 487.748 123.091 489.928 124.162C493.196 125.768 495.927 128.119 498.143 130.143C499.255 131.155 500.232 132.082 501.154 132.82C501.617 133.189 502.066 133.514 502.562 133.782C503.058 134.042 503.619 134.277 504.354 134.285C504.593 134.286 504.843 134.255 505.087 134.19L505.098 134.187C507.036 133.653 508.877 133.281 510.532 133.283C512.092 133.288 513.465 133.589 514.789 134.367C516.111 135.15 517.435 136.456 518.718 138.665C520.396 141.569 521.113 144.59 521.116 147.685C521.121 152.464 519.351 157.433 516.589 161.918C513.834 166.401 510.102 170.383 506.38 173.189L506.382 173.187C494.792 181.924 480.108 186.729 465.952 190.738C448.362 195.74 426.942 199.291 409.044 200.905C389.518 202.671 369.767 203.48 349.921 203.48C279.957 203.48 208.819 193.43 142.291 179.919C132.519 177.936 122.284 177.951 112.268 177.651C102.25 177.359 92.4642 176.751 83.6032 173.726L82.4142 177.215C91.9212 180.45 102.072 181.034 112.159 181.336C122.248 181.63 132.287 181.643 141.557 183.532C208.239 197.073 279.604 207.165 349.921 207.166C369.867 207.166 389.729 206.354 409.375 204.577C427.492 202.94 449.061 199.371 466.96 194.285C481.202 190.237 496.322 185.365 508.599 176.133L508.601 176.131C512.703 173.032 516.705 168.761 519.729 163.85C522.745 158.941 524.797 153.374 524.802 147.685C524.806 144.014 523.926 140.298 521.908 136.817C520.393 134.199 518.632 132.354 516.665 131.193C514.701 130.028 512.583 129.592 510.532 129.597C508.341 129.599 506.201 130.063 504.122 130.631L504.133 130.628L504.354 131.453V130.599L504.133 130.628L504.354 131.453V130.599V131.128L504.468 130.609L504.354 130.599V131.128L504.468 130.609L504.436 130.757L504.475 130.611L504.468 130.609L504.436 130.757L504.475 130.611L504.425 130.592C504.285 130.537 503.924 130.316 503.481 129.96C502.694 129.337 501.632 128.33 500.37 127.185C498.471 125.464 496.097 123.416 493.193 121.732C490.292 120.049 486.833 118.728 482.838 118.527C481.95 118.483 481.079 118.462 480.224 118.462C471.993 118.463 465.162 120.398 460.292 122.684C457.855 123.829 455.908 125.058 454.486 126.223C453.774 126.809 453.192 127.376 452.731 127.953C452.501 128.244 452.3 128.537 452.13 128.86C451.964 129.183 451.821 129.535 451.758 129.976C451.62 130.985 452.325 131.914 453.333 132.053C454.342 132.191 455.271 131.487 455.411 130.478C455.549 129.473 455.617 128.491 455.617 127.534C455.62 124.129 454.746 121.047 453.223 118.41C450.936 114.447 447.251 111.502 442.985 109.548C438.712 107.593 433.832 106.607 428.977 106.605C424.667 106.606 420.372 107.384 416.544 109.024C412.72 110.662 409.347 113.181 407.023 116.658L408.555 117.683L410.224 116.899C409.051 114.401 407.944 111.915 406.7 109.561C404.837 106.038 402.649 102.77 399.387 100.373C397.761 99.1781 395.875 98.2181 393.698 97.5701C391.52 96.9201 389.056 96.5791 386.245 96.5791C385.139 96.5791 383.978 96.6321 382.758 96.7401C375.849 97.3521 369.974 99.7161 365.453 103.677C360.927 107.634 357.803 113.137 356.187 119.827L357.979 120.261L359.663 119.511C357.924 115.605 355.424 112.289 352.3 109.928C349.182 107.566 345.419 106.18 341.328 106.184C338.035 106.183 334.555 107.074 331.037 108.951C328.429 110.342 326.32 112.01 324.623 113.878C322.075 116.682 320.473 119.909 319.334 123.265C318.194 126.624 317.498 130.128 316.77 133.61L318.575 133.986L320.083 132.927C317.643 129.456 315.062 126.847 312.351 125.08C309.646 123.315 306.788 122.408 303.949 122.411C300.578 122.408 297.317 123.682 294.393 125.938C291.461 128.198 288.817 131.433 286.494 135.511L288.096 136.423L289.505 135.234C284.114 128.836 276.734 125.572 269.227 125.58C261.237 125.577 253.122 129.245 246.989 136.415L248.389 137.614L250.101 136.931C247.7 130.925 244.779 125.935 241.038 122.365C239.168 120.583 237.086 119.164 234.787 118.198C232.489 117.23 229.981 116.723 227.301 116.724C221.662 116.73 215.33 118.921 208.068 123.507L209.053 125.065L210.868 124.744C209.796 118.656 206.42 113.754 201.975 110.436C197.527 107.111 192.012 105.317 186.485 105.314C182.421 105.314 178.339 106.292 174.706 108.393C171.073 110.489 167.907 113.718 165.707 118.094L167.354 118.923L169.185 118.707C168.496 112.79 166.145 108.339 162.781 105.445C159.423 102.546 155.159 101.251 150.838 101.255C144.996 101.263 138.971 103.563 134.317 107.616C131.993 109.645 130.015 112.123 128.616 114.988C127.217 117.852 126.404 121.104 126.405 124.625C126.405 124.901 126.41 125.18 126.42 125.459L128.262 125.393L129.715 124.258C127.547 121.482 124.73 119.216 121.629 117.625C118.526 116.037 115.132 115.119 111.778 115.117C108.328 115.112 104.893 116.116 102.073 118.406C99.2502 120.691 97.1192 124.206 96.0632 128.934L97.8622 129.338L99.2642 128.141C93.5582 121.463 86.1122 117.895 79.0132 117.89C74.6122 117.885 70.3412 119.289 66.8682 122.159C63.3902 125.026 60.7492 129.322 59.4272 134.924L61.2212 135.349L62.8182 134.428C61.2922 131.768 59.1992 129.94 56.9092 128.849C54.6172 127.751 52.1632 127.361 49.8082 127.361C46.8202 127.363 43.9662 127.983 41.6302 128.707C40.4622 129.07 39.4252 129.461 38.5672 129.822C37.7062 130.186 37.0332 130.514 36.5572 130.778C33.2242 132.635 30.7812 134.554 29.1152 136.619C27.4502 138.674 26.5902 140.939 26.5972 143.199C26.5982 145.577 27.5082 147.824 28.9392 149.879C31.4602 153.479 35.6012 156.691 40.5082 159.686C47.8712 164.16 57.0012 168.07 64.9812 171.114C68.9702 172.634 72.6682 173.935 75.7022 174.969C78.7342 176.001 81.1112 176.771 82.4142 177.215L83.0082 175.471Z" fill="#B7E0ED"/>
<path d="M370.413 -1.43989C386.175 -4.55989 401.468 5.66911 404.593 21.4161C407.718 37.1681 397.483 52.4611 381.741 55.5861C365.999 58.7161 350.696 48.4871 347.561 32.7301C344.436 16.9881 354.671 1.69011 370.413 -1.43989Z" fill="#C4E6F0"/>
<path d="M396.527 17.9151C399.672 33.6571 389.437 48.9601 373.686 52.0851C369.193 52.9741 364.75 52.7491 360.619 51.6551C366.684 55.4791 374.164 57.0901 381.742 55.5861C397.484 52.4611 407.719 37.1681 404.594 21.4161C402.367 10.1521 393.891 1.74314 383.49 -1.00586C390.014 3.10114 394.916 9.75114 396.527 17.9151Z" fill="#94D3E9"/>
<path d="M370.765 7.65213C370.735 8.01813 370.55 8.44313 370.159 8.92613C369.163 10.1711 367.395 10.8551 366.038 11.6411C364.085 12.7881 362.854 14.2581 361.897 16.2841C361.116 17.9151 359.71 20.6301 357.474 20.4841C355.677 20.3761 354.671 18.4961 355.159 16.9781C355.628 15.5571 356.731 14.2241 357.679 13.1111C360.061 10.3321 363.714 7.13913 367.308 6.20113C368.89 5.79613 370.862 6.30913 370.765 7.65213Z" fill="#FFFFFE"/>
<path d="M376.781 3.08603C378.959 2.65603 381.078 4.05803 381.508 6.24003C381.937 8.41803 380.521 10.532 378.344 10.957C376.176 11.392 374.057 9.98103 373.617 7.80303C373.187 5.62503 374.613 3.51103 376.781 3.08603Z" fill="#FFFFFE"/>
<path d="M334.13 99.4345C346.318 97.0175 358.163 104.927 360.575 117.12C362.997 129.317 355.087 141.158 342.9 143.575C330.702 145.992 318.857 138.082 316.435 125.88C314.013 113.692 321.943 101.851 334.13 99.4345Z" fill="#C4E6F0"/>
<path d="M354.345 114.415C356.757 126.602 348.837 138.443 336.65 140.865C333.183 141.553 329.745 141.383 326.532 140.533C331.239 143.487 337.021 144.742 342.9 143.575C355.087 141.158 362.997 129.317 360.575 117.12C358.857 108.404 352.294 101.895 344.247 99.7664C349.296 102.95 353.095 108.096 354.345 114.415Z" fill="#94D3E9"/>
<path d="M334.404 106.466C334.364 106.749 334.237 107.086 333.925 107.462C333.154 108.424 331.786 108.951 330.741 109.566C329.218 110.445 328.271 111.588 327.529 113.15C326.923 114.42 325.839 116.514 324.111 116.407C322.724 116.319 321.943 114.864 322.314 113.687C322.685 112.593 323.534 111.558 324.267 110.694C326.103 108.546 328.935 106.075 331.728 105.352C332.948 105.035 334.462 105.44 334.404 106.466Z" fill="#FFFFFE"/>
<path d="M339.052 102.935C340.732 102.598 342.372 103.692 342.704 105.377C343.046 107.061 341.943 108.697 340.263 109.029C338.583 109.366 336.943 108.272 336.611 106.588C336.279 104.908 337.372 103.267 339.052 102.935Z" fill="#FFFFFE"/>
<path d="M430.655 44.323C439.092 42.648 447.286 48.132 448.956 56.564C450.635 65.007 445.147 73.195 436.719 74.87C428.282 76.545 420.088 71.066 418.409 62.624C416.739 54.186 422.217 45.998 430.655 44.323Z" fill="#C4E6F0"/>
<path d="M444.639 54.6941C446.319 63.1271 440.831 71.3201 432.403 72.9951C430 73.4741 427.627 73.3561 425.401 72.7701C428.653 74.8111 432.657 75.6811 436.719 74.8701C445.147 73.1951 450.635 65.0071 448.956 56.5641C447.764 50.5391 443.213 46.0271 437.647 44.5581C441.143 46.7551 443.78 50.3191 444.639 54.6941Z" fill="#94D3E9"/>
<path d="M430.84 49.1862C430.831 49.3872 430.733 49.6212 430.518 49.8802C429.981 50.5492 429.034 50.9102 428.311 51.3302C427.256 51.9452 426.602 52.7312 426.084 53.8202C425.674 54.6942 424.922 56.1442 423.721 56.0712C422.764 56.0082 422.217 54.9972 422.491 54.1862C422.725 53.4302 423.311 52.7122 423.838 52.1112C425.108 50.6272 427.061 48.9232 428.995 48.4202C429.834 48.1952 430.889 48.4782 430.84 49.1862Z" fill="#FFFFFE"/>
<path d="M434.063 46.7452C435.225 46.5162 436.358 47.2722 436.592 48.4392C436.827 49.6022 436.065 50.7342 434.903 50.9692C433.741 51.1982 432.598 50.4362 432.374 49.2792C432.139 48.1122 432.901 46.9792 434.063 46.7452Z" fill="#FFFFFE"/>
<path d="M217.5 65.2412C224.053 63.9372 230.411 68.1952 231.709 74.7382C233.008 81.2812 228.76 87.6392 222.208 88.9372C215.665 90.2462 209.307 85.9882 208.018 79.4402C206.709 72.8972 210.958 66.5402 217.5 65.2412Z" fill="#C4E6F0"/>
<path d="M228.35 73.278C229.659 79.831 225.411 86.188 218.858 87.482C217.002 87.853 215.157 87.766 213.428 87.302C215.958 88.894 219.053 89.572 222.208 88.937C228.76 87.639 233.008 81.281 231.709 74.738C230.782 70.061 227.256 66.569 222.93 65.417C225.655 67.121 227.686 69.894 228.35 73.278Z" fill="#94D3E9"/>
<path d="M217.647 69.0161C217.647 69.1671 217.559 69.3481 217.393 69.5531C216.983 70.0651 216.241 70.3491 215.684 70.6811C214.874 71.1541 214.366 71.7651 213.956 72.6041C213.643 73.2831 213.057 74.4111 212.129 74.3481C211.377 74.2991 210.958 73.5271 211.163 72.8881C211.358 72.3071 211.807 71.7501 212.217 71.2861C213.194 70.1341 214.717 68.8011 216.221 68.4151C216.866 68.2491 217.686 68.4641 217.647 69.0161Z" fill="#FFFFFE"/>
<path d="M220.147 67.1211C221.045 66.9361 221.934 67.5261 222.11 68.4351C222.286 69.3331 221.7 70.2121 220.792 70.3931C219.893 70.5731 219.014 69.9821 218.838 69.0841C218.663 68.1711 219.249 67.3021 220.147 67.1211Z" fill="#FFFFFE"/>
<path d="M101.768 77.8001C110.206 76.1251 118.409 81.6031 120.079 90.0411C121.749 98.4831 116.28 106.677 107.842 108.347C99.4052 110.021 91.2212 104.538 89.5422 96.1051C87.8622 87.6681 93.3402 79.4701 101.768 77.8001Z" fill="#C4E6F0"/>
<path d="M115.762 88.1661C117.432 96.6031 111.963 104.797 103.526 106.472C101.124 106.945 98.7412 106.828 96.5342 106.242C99.7762 108.293 103.78 109.157 107.842 108.347C116.28 106.677 121.749 98.4831 120.079 90.0411C118.877 84.0061 114.346 79.5041 108.78 78.0291C112.276 80.2311 114.893 83.7911 115.762 88.1661Z" fill="#94D3E9"/>
<path d="M101.963 82.6681C101.944 82.8681 101.846 83.0931 101.631 83.3521C101.104 84.0251 100.147 84.3871 99.434 84.8071C98.389 85.4171 97.725 86.2131 97.208 87.2921C96.788 88.1661 96.045 89.6211 94.834 89.5431C93.877 89.4841 93.331 88.4781 93.604 87.6631C93.858 86.9061 94.444 86.1881 94.952 85.5931C96.221 84.1031 98.184 82.3991 100.108 81.8961C100.948 81.6771 102.002 81.9501 101.963 82.6681Z" fill="#FFFFFE"/>
<path d="M105.186 80.2171C106.348 79.9921 107.491 80.7491 107.706 81.9111C107.94 83.0781 107.178 84.2111 106.026 84.4451C104.854 84.6751 103.721 83.9181 103.497 82.7461C103.252 81.5891 104.014 80.4511 105.186 80.2171Z" fill="#FFFFFE"/>
<path d="M454.737 100.109C454.834 99.8901 454.913 99.6891 454.913 99.4451C453.321 99.5381 451.836 101.052 450.225 101.511C448.331 102.053 446.241 101.794 444.288 101.97C439.366 102.409 444.053 108.508 446.905 108.767C446.905 108.767 456.456 111.945 458.038 107.404C458.038 107.404 453.038 103.664 454.737 100.109Z" fill="#EA893E"/>
<path d="M493.448 101.769C493.038 113.044 483.545 121.833 472.276 121.423C461.006 120.993 452.217 111.52 452.627 100.241C453.057 88.9722 462.53 80.1782 473.799 80.5932C485.079 81.0182 493.877 90.4952 493.448 101.769Z" fill="#F7C340"/>
<path d="M467.432 111.076C467.432 111.076 464.522 114.191 459.053 118.576C447.872 127.551 448.692 150.842 467.901 155.251C467.901 155.251 484.434 160.5 500.909 154.782C517.188 149.128 518.125 135.173 515.528 115.256C515.528 115.256 492.911 134.235 485.752 112.268L464.6 111.315" fill="#F7C340"/>
<path d="M477.823 122.814C482.178 123.972 485.176 127.814 489.561 128.991C494.659 130.373 498.985 131.208 503.77 128.381C504.288 130.3 504.346 146.574 489.463 149.343C483.243 150.505 478.887 149.992 472.979 147.663C470.245 146.589 467.51 144.992 465.889 142.482C459.6 132.78 467.969 120.192 477.823 122.814Z" fill="#EA893E"/>
<path d="M463.331 98.2491C463.272 99.6411 462.1 100.734 460.694 100.681C459.307 100.627 458.213 99.4551 458.272 98.0541C458.321 96.6571 459.493 95.5681 460.889 95.6171C462.295 95.6711 463.379 96.8481 463.331 98.2491Z" fill="#1A1919"/>
<path d="M112.823 353.068C111.788 351.672 110.45 350.261 109.034 348.747C107.286 346.911 100.918 342.604 101.29 341.193C101.319 341.061 101.885 340.383 103.936 339.577C106.583 338.552 107.784 335.812 106.612 333.478C105.44 331.149 102.354 330.09 99.6979 331.125C94.8929 333.005 92.0019 335.69 91.0939 339.099C89.5419 344.992 94.6199 350.368 98.7019 354.68C99.9319 355.964 101.065 357.18 101.758 358.112C104.151 361.379 106.065 365.329 106.26 369.245C106.377 371.374 105.948 374.489 103.829 375.852C101.338 377.448 97.6369 378.156 94.6589 377.775C92.6859 377.521 90.7429 376.76 89.2289 375.598C93.7499 374.431 97.0609 370.744 97.0609 366.374C97.0609 361.061 92.1779 356.75 86.1629 356.75C83.7309 356.75 81.4949 357.463 79.6779 358.654C78.5649 359.245 77.4909 359.973 76.5039 360.837C71.7289 365.026 71.0839 370.036 72.9989 375.827C74.6199 380.72 78.9749 386.174 85.2639 388.142C88.3109 389.099 91.5919 389.562 94.7949 389.562C99.9809 389.562 103.946 389.309 107.725 386.994C120.342 379.245 120.518 363.532 112.823 353.068Z" fill="#6EA2CB"/>
<path d="M101.758 358.112C102.686 359.367 103.526 360.725 104.229 362.136C103.545 359.074 101.973 356.086 100.088 353.527C99.4049 352.595 98.2519 351.384 97.0419 350.095C94.8929 347.834 92.4909 345.275 90.8989 342.507C91.5039 347.067 95.4199 351.213 98.7019 354.68C99.9319 355.964 101.065 357.18 101.758 358.112Z" fill="#5391C1"/>
<path d="M115.499 357.59C117.881 366.652 115.362 376.691 106.045 382.409C102.286 384.719 98.3111 384.973 93.1351 384.973C89.9131 384.973 86.6511 384.509 83.5941 383.561C78.3791 381.926 74.5321 377.902 72.4321 373.786C72.5791 374.455 72.7741 375.139 72.9991 375.827C74.6201 380.72 78.9751 386.174 85.2641 388.142C88.3111 389.099 91.5921 389.562 94.7951 389.562C99.9811 389.562 103.946 389.309 107.725 386.994C118.643 380.295 120.235 367.653 115.499 357.59Z" fill="#5391C1"/>
<path d="M430.782 353.068C431.807 351.672 433.155 350.261 434.581 348.747C436.319 346.911 442.686 342.604 442.315 341.193C442.276 341.061 441.719 340.383 439.659 339.577C437.022 338.552 435.811 335.812 436.993 333.478C438.155 331.149 441.241 330.09 443.897 331.125C448.702 333.005 451.612 335.69 452.5 339.099C454.063 344.992 448.975 350.368 444.893 354.68C443.682 355.964 442.53 357.18 441.836 358.112C439.444 361.379 437.53 365.329 437.334 369.245C437.217 371.374 437.647 374.489 439.766 375.852C442.256 377.448 445.958 378.156 448.946 377.775C450.909 377.521 452.862 376.76 454.366 375.598C449.854 374.431 446.543 370.744 446.543 366.374C446.543 361.061 451.417 356.75 457.432 356.75C459.874 356.75 462.1 357.463 463.917 358.654C465.03 359.245 466.104 359.973 467.1 360.837C471.875 365.026 472.51 370.036 470.596 375.827C468.975 380.72 464.629 386.174 458.34 388.142C455.284 389.099 452.022 389.562 448.799 389.562C443.614 389.562 439.659 389.309 435.879 386.994C423.252 379.245 423.077 363.532 430.782 353.068Z" fill="#6EA2CB"/>
<path d="M441.836 358.112C440.918 359.367 440.079 360.725 439.366 362.136C440.059 359.074 441.631 356.086 443.506 353.527C444.2 352.595 445.342 351.384 446.563 350.095C448.702 347.834 451.104 345.275 452.706 342.507C452.09 347.067 448.174 351.213 444.893 354.68C443.682 355.964 442.53 357.18 441.836 358.112Z" fill="#5391C1"/>
<path d="M428.106 357.59C425.713 366.652 428.233 376.691 437.549 382.409C441.319 384.719 445.284 384.973 450.459 384.973C453.682 384.973 456.954 384.509 460.01 383.561C465.215 381.926 469.073 377.902 471.172 373.786C471.016 374.455 470.821 375.139 470.596 375.827C468.975 380.72 464.629 386.174 458.34 388.142C455.284 389.099 452.022 389.562 448.799 389.562C443.614 389.562 439.659 389.309 435.879 386.994C424.961 380.295 423.37 367.653 428.106 357.59Z" fill="#5391C1"/>
<path d="M292.92 187.946L20.02 174.328C32.413 185.539 35.83 208.703 39.815 223.298C48.858 256.403 50.059 299.88 79.073 323.796C85.088 328.747 93.223 334.777 100.626 338.347C134.17 354.528 266.778 355.637 292.413 355.524C292.51 355.524 292.696 355.524 292.92 355.524C293.135 355.524 293.321 355.524 293.418 355.524C319.053 355.637 409.424 354.528 442.979 338.347C450.381 334.777 458.516 328.747 464.532 323.796C493.545 299.88 494.747 256.403 503.78 223.298C507.764 208.703 511.182 185.539 523.575 174.328L292.92 187.946Z" fill="#85AACE"/>
<path d="M180.677 337.683C177.176 337.683 77.7811 337.001 59.1311 259.641C55.1271 242.995 51.3971 223.083 46.4751 198.469C46.4751 198.469 53.5061 222.38 66.8661 257.536C82.0121 297.38 121.006 329.245 180.772 337.683C180.772 337.683 180.74 337.683 180.677 337.683Z" fill="#DCE6EE"/>
<path d="M476.68 177.097C466.436 189.02 463.213 209.811 459.542 223.298C450.508 256.403 449.288 299.88 420.284 323.796C414.268 328.747 406.133 334.777 398.731 338.347C371.299 351.579 305.909 354.724 268.936 355.373C279.483 355.524 287.735 355.544 292.413 355.524C292.51 355.524 292.696 355.524 292.92 355.524C293.135 355.524 293.321 355.524 293.418 355.524C319.053 355.637 409.424 354.528 442.979 338.347C450.381 334.777 458.516 328.747 464.532 323.796C493.545 299.88 494.747 256.403 503.78 223.298C507.764 208.703 511.182 185.539 523.575 174.328L476.68 177.097Z" fill="#6EA2CB"/>
<path d="M292.92 187.946L20.02 174.328C23.409 177.39 26.104 181.359 28.34 185.788C33.057 186.936 37.92 187.79 42.5 188.522C134.62 203.239 289.405 203.503 294.932 203.478C300.44 203.503 413.008 203.239 505.127 188.522C508.252 188.015 511.504 187.468 514.756 186.799C517.081 181.96 519.932 177.619 523.575 174.328L292.92 187.946Z" fill="#6EA2CB"/>
<path d="M547.12 152.453C546.514 144.406 539.268 138.381 529.717 141.418C525.987 142.6 493.917 148.63 481.592 150.017C441.856 154.479 433.409 156.52 393.428 158.059C347.032 159.836 357.901 161.892 311.475 161.892C305.958 161.892 300.44 161.872 294.932 161.852C289.405 161.872 283.897 161.892 278.389 161.892C231.944 161.892 200.596 159.836 154.19 158.059C114.209 156.52 105.772 154.479 66.0361 150.017C53.7021 148.63 21.6311 142.6 17.9011 141.418C8.35009 138.381 1.10409 144.406 0.508089 152.453C-1.14191 174.245 23.1061 179.382 42.5001 182.482C134.62 197.209 289.405 197.468 294.932 197.443C300.44 197.468 413.008 197.209 505.127 182.482C524.512 179.382 548.76 174.245 547.12 152.453Z" fill="#85AACE"/>
<path d="M14.2483 169.196C15.0693 169.621 4.95228 155.353 15.0493 152.351C17.7643 151.545 50.6743 153.894 62.1883 156.242C59.9813 155.788 42.0713 151.457 36.4943 150.383C23.9943 147.98 6.70028 140.72 5.42028 157.561C5.08828 162.185 9.83428 166.906 14.2483 169.196Z" fill="#FFFFFE"/>
<path d="M79.4243 362.375C79.4243 362.375 90.7923 356.75 94.2393 367.351L94.3173 367.199C95.0403 365.563 94.1123 363.669 93.0773 362.409C91.6123 360.607 89.3853 358.767 84.9133 359.147C82.7063 359.343 80.7133 360.544 79.4243 362.375Z" fill="#FFFFFE"/>
<path d="M465.186 362.375C465.186 362.375 453.819 356.75 450.362 367.351L450.284 367.199C449.561 365.563 450.489 363.669 451.534 362.409C452.999 360.607 455.215 358.767 459.698 359.147C461.895 359.343 463.897 360.544 465.186 362.375Z" fill="#FFFFFE"/>
<path d="M131.143 133.444C142.1 131.267 152.745 138.391 154.913 149.348C157.081 160.31 149.971 170.954 139.014 173.127C128.057 175.305 117.413 168.186 115.235 157.228C113.057 146.262 120.176 135.617 131.143 133.444Z" fill="#C4E6F0"/>
<path d="M149.307 146.911C151.485 157.873 144.366 168.518 133.399 170.69C130.284 171.311 127.198 171.154 124.307 170.397C128.526 173.054 133.731 174.177 139.014 173.127C149.971 170.954 157.081 160.31 154.913 149.348C153.35 141.516 147.461 135.661 140.225 133.747C144.766 136.603 148.174 141.237 149.307 146.911Z" fill="#94D3E9"/>
<path d="M131.377 139.772C131.358 140.026 131.221 140.319 130.948 140.661C130.264 141.525 129.034 142.004 128.086 142.546C126.719 143.347 125.87 144.372 125.206 145.778C124.659 146.911 123.682 148.801 122.139 148.708C120.879 148.62 120.176 147.321 120.518 146.262C120.84 145.27 121.612 144.343 122.276 143.566C123.926 141.638 126.465 139.421 128.975 138.762C130.069 138.483 131.436 138.845 131.377 139.772Z" fill="#FFFFFE"/>
<path d="M135.557 136.594C137.081 136.291 138.545 137.277 138.838 138.786C139.151 140.3 138.155 141.774 136.651 142.072C135.127 142.375 133.663 141.394 133.37 139.875C133.057 138.361 134.043 136.896 135.557 136.594Z" fill="#FFFFFE"/>
<path d="M268.897 134.201C277.325 132.521 285.518 138 287.198 146.437C288.877 154.87 283.389 163.068 274.952 164.743C266.514 166.418 258.331 160.939 256.651 152.502C254.971 144.064 260.459 135.871 268.897 134.201Z" fill="#C4E6F0"/>
<path d="M282.872 144.558C284.551 153 279.073 161.193 270.635 162.868C268.233 163.342 265.85 163.22 263.633 162.634C266.885 164.68 270.889 165.554 274.952 164.743C283.389 163.068 288.877 154.87 287.198 146.437C285.997 140.402 281.456 135.9 275.889 134.431C279.385 136.628 282.002 140.192 282.872 144.558Z" fill="#94D3E9"/>
<path d="M269.073 139.06C269.053 139.255 268.956 139.484 268.75 139.753C268.213 140.422 267.266 140.783 266.543 141.208C265.499 141.818 264.834 142.6 264.327 143.688C263.897 144.562 263.155 146.018 261.963 145.944C260.997 145.881 260.45 144.875 260.713 144.064C260.967 143.303 261.553 142.585 262.061 141.984C263.34 140.5 265.293 138.786 267.217 138.293C268.077 138.068 269.122 138.352 269.073 139.06Z" fill="#FFFFFE"/>
<path d="M272.295 136.613C273.467 136.389 274.6 137.145 274.825 138.308C275.059 139.475 274.297 140.607 273.135 140.837C271.973 141.071 270.84 140.31 270.596 139.147C270.381 137.98 271.133 136.848 272.295 136.613Z" fill="#FFFFFE"/>
<path d="M436.231 129.797C451.983 126.667 467.276 136.901 470.401 152.648C473.536 168.395 463.301 183.693 447.549 186.828C431.807 189.953 416.504 179.719 413.389 163.967C410.254 148.225 420.479 132.917 436.231 129.797Z" fill="#C4E6F0"/>
<path d="M462.344 149.143C465.469 164.899 455.245 180.192 439.502 183.327C435.01 184.216 430.577 183.986 426.426 182.893C432.491 186.716 439.971 188.327 447.549 186.828C463.301 183.693 473.536 168.395 470.401 152.648C468.174 141.394 459.698 132.976 449.307 130.227C455.821 134.333 460.723 140.993 462.344 149.143Z" fill="#94D3E9"/>
<path d="M436.573 138.884C436.553 139.245 436.368 139.68 435.967 140.168C434.971 141.413 433.204 142.092 431.856 142.883C429.893 144.025 428.663 145.5 427.706 147.517C426.924 149.152 425.528 151.857 423.292 151.726C421.485 151.608 420.479 149.733 420.977 148.215C421.436 146.799 422.54 145.451 423.497 144.348C425.87 141.569 429.522 138.376 433.125 137.438C434.698 137.028 436.67 137.551 436.573 138.884Z" fill="#FFFFFE"/>
<path d="M442.588 134.318C444.766 133.884 446.885 135.3 447.315 137.477C447.745 139.655 446.329 141.76 444.161 142.199C441.983 142.629 439.874 141.218 439.434 139.04C439.004 136.867 440.42 134.748 442.588 134.318Z" fill="#FFFFFE"/>
<defs>
<linearGradient id="paint0_linear_856_1062" x1="219.72" y1="96.0526" x2="154.069" y2="2.30573" gradientUnits="userSpaceOnUse">
<stop/>
<stop offset="1" stop-color="white"/>
</linearGradient>
<radialGradient id="paint1_radial_856_1062" cx="0" cy="0" r="1" gradientUnits="userSpaceOnUse" gradientTransform="translate(193.912 85.6322) rotate(-0.281891) scale(25.7606 26.7843)">
<stop stop-color="white"/>
<stop offset="1" stop-color="white" stop-opacity="0"/>
</radialGradient>
<linearGradient id="paint2_linear_856_1062" x1="209.416" y1="96.1035" x2="209.601" y2="133.601" gradientUnits="userSpaceOnUse">
<stop stop-color="#00C3A1"/>
<stop offset="1" stop-color="#006E5A"/>
</linearGradient>
<radialGradient id="paint3_radial_856_1062" cx="0" cy="0" r="1" gradientUnits="userSpaceOnUse" gradientTransform="translate(193.911 85.6322) rotate(-0.281964) scale(51.5212 48.2118)">
<stop stop-color="white"/>
<stop offset="1" stop-color="white" stop-opacity="0"/>
</radialGradient>
<radialGradient id="paint4_radial_856_1062" cx="0" cy="0" r="1" gradientUnits="userSpaceOnUse" gradientTransform="translate(193.911 85.6322) rotate(-0.281891) scale(25.7606 26.7843)">
<stop stop-color="white"/>
<stop offset="1" stop-color="white" stop-opacity="0"/>
</radialGradient>
<linearGradient id="paint5_linear_856_1062" x1="227.72" y1="96.0526" x2="162.069" y2="2.30573" gradientUnits="userSpaceOnUse">
<stop/>
<stop offset="1" stop-color="white"/>
</linearGradient>
<radialGradient id="paint6_radial_856_1062" cx="0" cy="0" r="1" gradientUnits="userSpaceOnUse" gradientTransform="translate(201.912 85.6322) rotate(-0.281891) scale(25.7606 26.7843)">
<stop stop-color="white"/>
<stop offset="1" stop-color="white" stop-opacity="0"/>
</radialGradient>
<linearGradient id="paint7_linear_856_1062" x1="217.416" y1="96.1035" x2="217.601" y2="133.601" gradientUnits="userSpaceOnUse">
<stop stop-color="#00C3A1"/>
<stop offset="1" stop-color="#006E5A"/>
</linearGradient>
<radialGradient id="paint8_radial_856_1062" cx="0" cy="0" r="1" gradientUnits="userSpaceOnUse" gradientTransform="translate(201.911 85.6322) rotate(-0.281964) scale(51.5212 48.2118)">
<stop stop-color="white"/>
<stop offset="1" stop-color="white" stop-opacity="0"/>
</radialGradient>
<radialGradient id="paint9_radial_856_1062" cx="0" cy="0" r="1" gradientUnits="userSpaceOnUse" gradientTransform="translate(201.911 85.6322) rotate(-0.281891) scale(25.7606 26.7843)">
<stop stop-color="white"/>
<stop offset="1" stop-color="white" stop-opacity="0"/>
</radialGradient>
<linearGradient id="paint10_linear_856_1062" x1="227.72" y1="102.053" x2="162.069" y2="8.30573" gradientUnits="userSpaceOnUse">
<stop/>
<stop offset="1" stop-color="white"/>
</linearGradient>
<radialGradient id="paint11_radial_856_1062" cx="0" cy="0" r="1" gradientUnits="userSpaceOnUse" gradientTransform="translate(201.912 91.6322) rotate(-0.281891) scale(25.7606 26.7843)">
<stop stop-color="white"/>
<stop offset="1" stop-color="white" stop-opacity="0"/>
</radialGradient>
<linearGradient id="paint12_linear_856_1062" x1="217.416" y1="102.104" x2="217.601" y2="139.601" gradientUnits="userSpaceOnUse">
<stop stop-color="#00C3A1"/>
<stop offset="1" stop-color="#006E5A"/>
</linearGradient>
<radialGradient id="paint13_radial_856_1062" cx="0" cy="0" r="1" gradientUnits="userSpaceOnUse" gradientTransform="translate(201.911 91.6322) rotate(-0.281964) scale(51.5212 48.2118)">
<stop stop-color="white"/>
<stop offset="1" stop-color="white" stop-opacity="0"/>
</radialGradient>
<radialGradient id="paint14_radial_856_1062" cx="0" cy="0" r="1" gradientUnits="userSpaceOnUse" gradientTransform="translate(201.911 91.6322) rotate(-0.281891) scale(25.7606 26.7843)">
<stop stop-color="white"/>
<stop offset="1" stop-color="white" stop-opacity="0"/>
</radialGradient>
<linearGradient id="paint15_linear_856_1062" x1="224.023" y1="95.8217" x2="162.413" y2="4.34808" gradientUnits="userSpaceOnUse">
<stop/>
<stop offset="1" stop-color="white"/>
</linearGradient>
<radialGradient id="paint16_radial_856_1062" cx="0" cy="0" r="1" gradientUnits="userSpaceOnUse" gradientTransform="translate(198.486 85.9051) rotate(-0.271116) scale(25.4901)">
<stop stop-color="white"/>
<stop offset="1" stop-color="white" stop-opacity="0"/>
</radialGradient>
<linearGradient id="paint17_linear_856_1062" x1="213.828" y1="95.8699" x2="213.997" y2="131.556" gradientUnits="userSpaceOnUse">
<stop stop-color="#00C3A1"/>
<stop offset="1" stop-color="#006E5A"/>
</linearGradient>
<radialGradient id="paint18_radial_856_1062" cx="0" cy="0" r="1" gradientUnits="userSpaceOnUse" gradientTransform="translate(198.486 85.9051) rotate(-0.271187) scale(50.9802 45.8821)">
<stop stop-color="white"/>
<stop offset="1" stop-color="white" stop-opacity="0"/>
</radialGradient>
<radialGradient id="paint19_radial_856_1062" cx="0" cy="0" r="1" gradientUnits="userSpaceOnUse" gradientTransform="translate(198.486 85.9051) rotate(-0.271116) scale(25.4901)">
<stop stop-color="white"/>
<stop offset="1" stop-color="white" stop-opacity="0"/>
</radialGradient>
</defs>
</svg>
