<svg width="852" height="416" viewBox="0 0 852 416" fill="none" xmlns="http://www.w3.org/2000/svg">
<g filter="url(#filter0_d_856_912)">
<mask id="mask0_856_912" style="mask-type:alpha" maskUnits="userSpaceOnUse" x="257" y="37" width="321" height="116">
<path d="M257.586 41.7095L258.086 151.505L289.711 151.349C300.7 151.295 307.925 150.587 311.467 149.258C315.009 147.929 317.573 145.477 319.158 141.897C320.471 139.009 321.232 134.843 321.464 129.46C318.013 120.945 317.263 111.351 319.522 102.162C319.108 101.13 318.597 100.201 318.056 99.3817C315.79 95.9112 311.532 93.4413 305.208 91.9802C310.87 90.5959 314.649 88.6548 316.541 86.1133C318.477 83.5716 319.417 79.0552 319.388 72.6344C319.345 63.139 317.95 56.2931 315.205 52.056C312.459 47.774 308.86 44.9377 304.397 43.5579C299.977 42.178 293.459 41.533 284.849 41.5753L257.586 41.7095ZM481.37 40.608L481.87 150.403L508.86 150.271L508.36 40.4752L481.37 40.608ZM407.023 48.7694C408.526 49.8409 409.732 50.8188 410.671 51.7279C412.444 53.443 413.475 54.944 413.693 56.7683C413.911 58.5926 412.853 60.2454 411.985 60.9343C411.73 61.1373 411.722 61.092 411.487 61.2202L401.888 78.6537L402.089 122.921C402.13 131.874 402.407 137.581 402.894 140.02C403.381 142.414 404.603 144.538 406.558 146.428C408.514 148.272 410.745 149.455 413.3 149.985C415.855 150.47 420.146 150.707 426.117 150.678L436.704 150.626L436.638 136.122C432.355 136.143 429.881 135.794 429.272 135.119C428.707 134.443 428.436 131.125 428.409 125.201L428.19 77.0596L435.233 77.0249L435.168 62.8044L428.125 62.8391L428.061 48.6659L407.023 48.7694ZM442.237 48.5961L442.302 62.7693L436.668 62.7971L436.732 77.0176L442.367 76.9898L442.575 122.722C442.616 131.675 442.893 137.382 443.38 139.821C443.867 142.215 445.088 144.339 447.044 146.228C448.999 148.073 451.276 149.255 453.831 149.786C456.386 150.27 460.632 150.508 466.602 150.479L477.189 150.426L477.123 135.923C472.84 135.944 470.366 135.595 469.758 134.919C469.192 134.244 468.922 130.926 468.895 125.002L468.675 76.8603L475.764 76.8254L475.699 62.605L468.611 62.6398L468.546 48.4666L442.237 48.5961ZM546.02 58.432C540.006 58.4617 534.661 59.7314 530.043 62.1957C525.424 64.6151 522.152 68.1089 520.139 72.6857C518.126 77.2174 517.098 83.4002 517.134 91.2678L517.254 117.536C517.284 124.228 517.762 129.314 518.686 132.836C519.611 136.313 521.288 139.522 523.638 142.45C526.03 145.332 529.327 147.599 533.574 149.251C537.822 150.903 542.724 151.71 548.262 151.683C553.973 151.655 558.717 150.801 562.473 149.109C566.273 147.372 569.393 144.813 571.844 141.409C574.295 138.006 575.845 134.83 576.481 131.843C577.159 128.855 577.447 124.549 577.422 118.988L577.392 112.326L552.537 112.448L552.591 124.354C552.611 128.83 552.318 131.844 551.633 133.43C550.991 134.97 549.635 135.755 547.645 135.764C546.044 135.772 544.978 135.205 544.41 134.032C543.843 132.859 543.53 130.216 543.511 126.147L543.423 106.682L577.365 106.515L577.311 94.5623C577.271 85.8356 576.279 79.0923 574.31 74.3089C572.385 69.4802 569.031 65.6538 564.216 62.7835C559.443 59.8679 553.375 58.3959 546.02 58.432ZM284.98 60.331C287.792 60.3625 289.709 60.5603 290.662 60.9172C291.659 61.2741 292.425 62.1526 293.037 63.5513C293.649 64.9049 293.963 67.2915 293.979 70.7279C294.008 77.2391 293.671 81.2335 292.942 82.6388C292.213 83.999 290.499 84.6824 287.817 84.6956C287.168 84.6988 286.259 84.7047 285.091 84.7561L284.98 60.3309L284.98 60.331ZM547.32 74.3945C548.791 74.3873 549.755 75.0576 550.237 76.4116C550.719 77.7659 550.984 80.7745 551.005 85.4317L551.035 91.9986L543.356 92.0364L543.326 85.4695C543.303 80.4053 543.538 77.2917 543.965 76.159C544.393 74.9814 545.503 74.4035 547.32 74.3945ZM285.169 101.859C289.236 101.974 291.763 102.532 292.719 103.522C293.676 104.512 294.145 107.364 294.167 112.067L294.213 122.271C294.233 126.702 293.738 129.506 292.661 130.641C291.628 131.777 289.159 132.413 285.309 132.567L285.169 101.859Z" fill="black"/>
<path d="M391.987 42.6883C376.328 33.3907 378.274 40.6941 378.274 40.6941L360.743 72.6126C346.878 72.1359 333.216 79.4799 325.862 92.8691C315.285 112.128 321.766 136.681 340.288 147.679C358.811 158.677 382.403 151.979 392.981 132.721C400.334 119.332 399.475 103.365 392.034 91.1914L409.564 59.2728C409.564 59.2728 416.603 57.3041 400.944 48.0066L391.987 42.6883Z" fill="url(#paint0_linear_856_912)"/>
<path opacity="0.75" d="M359.583 147.78C378.078 147.689 393.001 132.026 392.913 112.796C392.826 93.5659 377.761 78.0505 359.266 78.1416C340.771 78.2326 325.849 93.8955 325.936 113.126C326.024 132.356 341.088 147.871 359.583 147.78Z" fill="url(#paint1_radial_856_912)"/>
<path d="M362.459 75.6062C340.1 73.0953 319.591 96.0409 324.215 118.977C327.211 142.469 354.268 157.205 374.55 146.462C394.298 137.62 401.569 109.143 388.612 91.2574C394.618 79.6957 402.478 67.5702 407.31 56.2512C399.444 50.0843 390.645 44.524 381.432 41.1183C381.432 41.1183 368.538 64.4531 362.459 75.6062Z" fill="white"/>
<mask id="mask1_856_912" style="mask-type:alpha" maskUnits="userSpaceOnUse" x="323" y="41" width="85" height="110">
<path d="M362.459 75.606C340.1 73.0951 319.592 96.0407 324.215 118.976C327.212 142.469 354.269 157.205 374.551 146.462C394.298 137.62 401.57 109.142 388.613 91.2572C394.619 79.6954 402.479 67.57 407.311 56.2509C399.444 50.084 390.645 44.5237 381.432 41.1181C381.432 41.1181 368.538 64.4528 362.459 75.606Z" fill="white"/>
</mask>
<g mask="url(#mask1_856_912)">
<path d="M361.951 101.021C343.709 101.111 337.533 108.082 327.022 103.98C316.511 99.8779 318.411 100.695 315.089 99.2468L315.32 149.994L404.879 149.553L404.699 110.145C404.699 110.145 400.154 112.426 392.754 109.893C385.354 107.36 376.881 100.947 361.951 101.021L361.951 101.021Z" fill="url(#paint2_linear_856_912)"/>
<path d="M372.219 93.982C374.144 96.1603 377.404 96.3032 379.499 94.3013C381.594 92.2993 381.731 88.9106 379.806 86.7323C377.88 84.5539 374.621 84.411 372.526 86.4129C370.431 88.4149 370.293 91.8037 372.219 93.982Z" fill="#00C3A1"/>
<path d="M373.78 104.511C374.743 105.6 376.373 105.671 377.42 104.67C378.468 103.669 378.536 101.975 377.574 100.886C376.611 99.7967 374.981 99.7253 373.934 100.726C372.886 101.727 372.818 103.422 373.78 104.511Z" fill="#00C3A1"/>
<path d="M355.687 104.882C358.575 108.149 363.464 108.364 366.607 105.361C369.749 102.358 369.956 97.2748 367.067 94.0073C364.179 90.7399 359.29 90.5254 356.148 93.5284C353.005 96.5313 352.799 101.614 355.687 104.882Z" fill="#00C3A1"/>
<path d="M361.712 87.1038C362.675 88.193 364.305 88.2644 365.352 87.2635C366.4 86.2625 366.469 84.5681 365.506 83.4789C364.543 82.3898 362.913 82.3183 361.866 83.3193C360.818 84.3203 360.75 86.0147 361.712 87.1038Z" fill="#00C3A1"/>
<path d="M342.715 108.448C344.64 110.626 347.9 110.769 349.995 108.767C352.09 106.765 352.227 103.377 350.302 101.198C348.376 99.02 345.117 98.8771 343.022 100.879C340.927 102.881 340.789 106.27 342.715 108.448Z" fill="#00C3A1"/>
</g>
<g opacity="0.75">
<path opacity="0.75" d="M359.583 147.78C378.078 147.689 393 132.026 392.913 112.796C392.825 93.5659 377.761 78.0505 359.266 78.1416C340.771 78.2326 325.848 93.8955 325.936 113.126C326.023 132.356 341.088 147.871 359.583 147.78Z" fill="url(#paint3_radial_856_912)"/>
<path opacity="0.75" d="M359.583 147.78C378.078 147.689 393 132.026 392.913 112.796C392.825 93.5659 377.761 78.0505 359.266 78.1416C340.771 78.2326 325.848 93.8955 325.936 113.126C326.023 132.356 341.088 147.871 359.583 147.78Z" fill="url(#paint4_radial_856_912)"/>
</g>
</mask>
<g mask="url(#mask0_856_912)">
<rect x="246.64" y="22.7949" width="346.16" height="143.967" fill="white"/>
</g>
<mask id="mask2_856_912" style="mask-type:alpha" maskUnits="userSpaceOnUse" x="265" y="37" width="321" height="116">
<path d="M265.586 41.7095L266.086 151.505L297.711 151.349C308.7 151.295 315.925 150.587 319.467 149.258C323.009 147.929 325.573 145.477 327.158 141.897C328.471 139.009 329.232 134.843 329.464 129.46C326.013 120.945 325.263 111.351 327.522 102.162C327.108 101.13 326.597 100.201 326.056 99.3817C323.79 95.9112 319.532 93.4413 313.208 91.9802C318.87 90.5959 322.649 88.6548 324.541 86.1133C326.477 83.5716 327.417 79.0552 327.388 72.6344C327.345 63.139 325.95 56.2931 323.205 52.056C320.459 47.774 316.86 44.9377 312.397 43.5579C307.977 42.178 301.459 41.533 292.849 41.5753L265.586 41.7095ZM489.37 40.608L489.87 150.403L516.86 150.271L516.36 40.4752L489.37 40.608ZM415.023 48.7694C416.526 49.8409 417.732 50.8188 418.671 51.7279C420.444 53.443 421.475 54.944 421.693 56.7683C421.911 58.5926 420.853 60.2454 419.985 60.9343C419.73 61.1373 419.722 61.092 419.487 61.2202L409.888 78.6537L410.089 122.921C410.13 131.874 410.407 137.581 410.894 140.02C411.381 142.414 412.603 144.538 414.558 146.428C416.514 148.272 418.745 149.455 421.3 149.985C423.855 150.47 428.146 150.707 434.117 150.678L444.704 150.626L444.638 136.122C440.355 136.143 437.881 135.794 437.272 135.119C436.707 134.443 436.436 131.125 436.409 125.201L436.19 77.0596L443.233 77.0249L443.168 62.8044L436.125 62.8391L436.061 48.6659L415.023 48.7694ZM450.237 48.5961L450.302 62.7693L444.668 62.7971L444.732 77.0176L450.367 76.9898L450.575 122.722C450.616 131.675 450.893 137.382 451.38 139.821C451.867 142.215 453.088 144.339 455.044 146.228C456.999 148.073 459.276 149.255 461.831 149.786C464.386 150.27 468.632 150.508 474.602 150.479L485.189 150.426L485.123 135.923C480.84 135.944 478.366 135.595 477.758 134.919C477.192 134.244 476.922 130.926 476.895 125.002L476.675 76.8603L483.764 76.8254L483.699 62.605L476.611 62.6398L476.546 48.4666L450.237 48.5961ZM554.02 58.432C548.006 58.4617 542.661 59.7314 538.043 62.1957C533.424 64.6151 530.152 68.1089 528.139 72.6857C526.126 77.2174 525.098 83.4002 525.134 91.2678L525.254 117.536C525.284 124.228 525.762 129.314 526.686 132.836C527.611 136.313 529.288 139.522 531.638 142.45C534.03 145.332 537.327 147.599 541.574 149.251C545.822 150.903 550.724 151.71 556.262 151.683C561.973 151.655 566.717 150.801 570.473 149.109C574.273 147.372 577.393 144.813 579.844 141.409C582.295 138.006 583.845 134.83 584.481 131.843C585.159 128.855 585.447 124.549 585.422 118.988L585.392 112.326L560.537 112.448L560.591 124.354C560.611 128.83 560.318 131.844 559.633 133.43C558.991 134.97 557.635 135.755 555.645 135.764C554.044 135.772 552.978 135.205 552.41 134.032C551.843 132.859 551.53 130.216 551.511 126.147L551.423 106.682L585.365 106.515L585.311 94.5623C585.271 85.8356 584.279 79.0923 582.31 74.3089C580.385 69.4802 577.031 65.6538 572.216 62.7835C567.443 59.8679 561.375 58.3959 554.02 58.432ZM292.98 60.331C295.792 60.3625 297.709 60.5603 298.662 60.9172C299.659 61.2741 300.425 62.1526 301.037 63.5513C301.649 64.9049 301.963 67.2915 301.979 70.7279C302.008 77.2391 301.671 81.2335 300.942 82.6388C300.213 83.999 298.499 84.6824 295.817 84.6956C295.168 84.6988 294.259 84.7047 293.091 84.7561L292.98 60.3309L292.98 60.331ZM555.32 74.3945C556.791 74.3873 557.755 75.0576 558.237 76.4116C558.719 77.7659 558.984 80.7745 559.005 85.4317L559.035 91.9986L551.356 92.0364L551.326 85.4695C551.303 80.4053 551.538 77.2917 551.965 76.159C552.393 74.9814 553.503 74.4035 555.32 74.3945ZM293.169 101.859C297.236 101.974 299.763 102.532 300.719 103.522C301.676 104.512 302.145 107.364 302.167 112.067L302.213 122.271C302.233 126.702 301.738 129.506 300.661 130.641C299.628 131.777 297.159 132.413 293.309 132.567L293.169 101.859Z" fill="black"/>
<path d="M399.987 42.6883C384.328 33.3907 386.274 40.6941 386.274 40.6941L368.743 72.6126C354.878 72.1359 341.216 79.4799 333.862 92.8691C323.285 112.128 329.766 136.681 348.288 147.679C366.811 158.677 390.403 151.979 400.981 132.721C408.334 119.332 407.475 103.365 400.034 91.1914L417.564 59.2728C417.564 59.2728 424.603 57.3041 408.944 48.0066L399.987 42.6883Z" fill="url(#paint5_linear_856_912)"/>
<path opacity="0.75" d="M367.583 147.78C386.078 147.689 401.001 132.026 400.913 112.796C400.826 93.5659 385.761 78.0505 367.266 78.1416C348.771 78.2326 333.849 93.8955 333.936 113.126C334.024 132.356 349.088 147.871 367.583 147.78Z" fill="url(#paint6_radial_856_912)"/>
<path d="M370.459 75.6062C348.1 73.0953 327.591 96.0409 332.215 118.977C335.211 142.469 362.268 157.205 382.55 146.462C402.298 137.62 409.569 109.143 396.612 91.2574C402.618 79.6957 410.478 67.5702 415.31 56.2512C407.444 50.0843 398.645 44.524 389.432 41.1183C389.432 41.1183 376.538 64.4531 370.459 75.6062Z" fill="white"/>
<mask id="mask3_856_912" style="mask-type:alpha" maskUnits="userSpaceOnUse" x="331" y="41" width="85" height="110">
<path d="M370.459 75.606C348.1 73.0951 327.592 96.0407 332.215 118.976C335.212 142.469 362.269 157.205 382.551 146.462C402.298 137.62 409.57 109.142 396.613 91.2572C402.619 79.6954 410.479 67.57 415.311 56.2509C407.444 50.084 398.645 44.5237 389.432 41.1181C389.432 41.1181 376.538 64.4528 370.459 75.606Z" fill="white"/>
</mask>
<g mask="url(#mask3_856_912)">
<path d="M369.951 101.021C351.709 101.111 345.533 108.082 335.022 103.98C324.511 99.8779 326.411 100.695 323.089 99.2468L323.32 149.994L412.879 149.553L412.699 110.145C412.699 110.145 408.154 112.426 400.754 109.893C393.354 107.36 384.881 100.947 369.951 101.021L369.951 101.021Z" fill="url(#paint7_linear_856_912)"/>
<path d="M380.219 93.982C382.144 96.1603 385.404 96.3032 387.499 94.3013C389.594 92.2993 389.731 88.9106 387.806 86.7323C385.88 84.5539 382.621 84.411 380.526 86.4129C378.431 88.4149 378.293 91.8037 380.219 93.982Z" fill="#00C3A1"/>
<path d="M381.78 104.511C382.743 105.6 384.373 105.671 385.42 104.67C386.468 103.669 386.536 101.975 385.574 100.886C384.611 99.7967 382.981 99.7253 381.934 100.726C380.886 101.727 380.818 103.422 381.78 104.511Z" fill="#00C3A1"/>
<path d="M363.687 104.882C366.575 108.149 371.464 108.364 374.607 105.361C377.749 102.358 377.956 97.2748 375.067 94.0073C372.179 90.7399 367.29 90.5254 364.148 93.5284C361.005 96.5313 360.799 101.614 363.687 104.882Z" fill="#00C3A1"/>
<path d="M369.712 87.1038C370.675 88.193 372.305 88.2644 373.352 87.2635C374.4 86.2625 374.469 84.5681 373.506 83.4789C372.543 82.3898 370.913 82.3183 369.866 83.3193C368.818 84.3203 368.75 86.0147 369.712 87.1038Z" fill="#00C3A1"/>
<path d="M350.715 108.448C352.64 110.626 355.9 110.769 357.995 108.767C360.09 106.765 360.227 103.377 358.302 101.198C356.376 99.02 353.117 98.8771 351.022 100.879C348.927 102.881 348.789 106.27 350.715 108.448Z" fill="#00C3A1"/>
</g>
<g opacity="0.75">
<path opacity="0.75" d="M367.583 147.78C386.078 147.689 401 132.026 400.913 112.796C400.825 93.5659 385.761 78.0505 367.266 78.1416C348.771 78.2326 333.848 93.8955 333.936 113.126C334.023 132.356 349.088 147.871 367.583 147.78Z" fill="url(#paint8_radial_856_912)"/>
<path opacity="0.75" d="M367.583 147.78C386.078 147.689 401 132.026 400.913 112.796C400.825 93.5659 385.761 78.0505 367.266 78.1416C348.771 78.2326 333.848 93.8955 333.936 113.126C334.023 132.356 349.088 147.871 367.583 147.78Z" fill="url(#paint9_radial_856_912)"/>
</g>
</mask>
<g mask="url(#mask2_856_912)">
<rect x="254.64" y="22.7949" width="346.16" height="143.967" fill="white"/>
</g>
<mask id="mask4_856_912" style="mask-type:alpha" maskUnits="userSpaceOnUse" x="265" y="43" width="321" height="116">
<path d="M265.586 47.7095L266.086 157.505L297.711 157.349C308.7 157.295 315.925 156.587 319.467 155.258C323.009 153.929 325.573 151.477 327.158 147.897C328.471 145.009 329.232 140.843 329.464 135.46C326.013 126.945 325.263 117.351 327.522 108.162C327.108 107.13 326.597 106.201 326.056 105.382C323.79 101.911 319.532 99.4413 313.208 97.9802C318.87 96.5959 322.649 94.6548 324.541 92.1133C326.477 89.5716 327.417 85.0552 327.388 78.6344C327.345 69.139 325.95 62.2931 323.205 58.056C320.459 53.774 316.86 50.9377 312.397 49.5579C307.977 48.178 301.459 47.533 292.849 47.5753L265.586 47.7095ZM489.37 46.608L489.87 156.403L516.86 156.271L516.36 46.4752L489.37 46.608ZM415.023 54.7694C416.526 55.8409 417.732 56.8188 418.671 57.7279C420.444 59.443 421.475 60.944 421.693 62.7683C421.911 64.5926 420.853 66.2454 419.985 66.9343C419.73 67.1373 419.722 67.092 419.487 67.2202L409.888 84.6537L410.089 128.921C410.13 137.874 410.407 143.581 410.894 146.02C411.381 148.414 412.603 150.538 414.558 152.428C416.514 154.272 418.745 155.455 421.3 155.985C423.855 156.47 428.146 156.707 434.117 156.678L444.704 156.626L444.638 142.122C440.355 142.143 437.881 141.794 437.272 141.119C436.707 140.443 436.436 137.125 436.409 131.201L436.19 83.0596L443.233 83.0249L443.168 68.8044L436.125 68.8391L436.061 54.6659L415.023 54.7694ZM450.237 54.5961L450.302 68.7693L444.668 68.7971L444.732 83.0176L450.367 82.9898L450.575 128.722C450.616 137.675 450.893 143.382 451.38 145.821C451.867 148.215 453.088 150.339 455.044 152.228C456.999 154.073 459.276 155.255 461.831 155.786C464.386 156.27 468.632 156.508 474.602 156.479L485.189 156.426L485.123 141.923C480.84 141.944 478.366 141.595 477.758 140.919C477.192 140.244 476.922 136.926 476.895 131.002L476.675 82.8603L483.764 82.8254L483.699 68.605L476.611 68.6398L476.546 54.4666L450.237 54.5961ZM554.02 64.432C548.006 64.4617 542.661 65.7314 538.043 68.1957C533.424 70.6151 530.152 74.1089 528.139 78.6857C526.126 83.2174 525.098 89.4002 525.134 97.2678L525.254 123.536C525.284 130.228 525.762 135.314 526.686 138.836C527.611 142.313 529.288 145.522 531.638 148.45C534.03 151.332 537.327 153.599 541.574 155.251C545.822 156.903 550.724 157.71 556.262 157.683C561.973 157.655 566.717 156.801 570.473 155.109C574.273 153.372 577.393 150.813 579.844 147.409C582.295 144.006 583.845 140.83 584.481 137.843C585.159 134.855 585.447 130.549 585.422 124.988L585.392 118.326L560.537 118.448L560.591 130.354C560.611 134.83 560.318 137.844 559.633 139.43C558.991 140.97 557.635 141.755 555.645 141.764C554.044 141.772 552.978 141.205 552.41 140.032C551.843 138.859 551.53 136.216 551.511 132.147L551.423 112.682L585.365 112.515L585.311 100.562C585.271 91.8356 584.279 85.0923 582.31 80.3089C580.385 75.4802 577.031 71.6538 572.216 68.7835C567.443 65.8679 561.375 64.3959 554.02 64.432ZM292.98 66.331C295.792 66.3625 297.709 66.5603 298.662 66.9172C299.659 67.2741 300.425 68.1526 301.037 69.5513C301.649 70.9049 301.963 73.2915 301.979 76.7279C302.008 83.2391 301.671 87.2335 300.942 88.6388C300.213 89.999 298.499 90.6824 295.817 90.6956C295.168 90.6988 294.259 90.7047 293.091 90.7561L292.98 66.3309L292.98 66.331ZM555.32 80.3945C556.791 80.3873 557.755 81.0576 558.237 82.4116C558.719 83.7659 558.984 86.7745 559.005 91.4317L559.035 97.9986L551.356 98.0364L551.326 91.4695C551.303 86.4053 551.538 83.2917 551.965 82.159C552.393 80.9814 553.503 80.4035 555.32 80.3945ZM293.169 107.859C297.236 107.974 299.763 108.532 300.719 109.522C301.676 110.512 302.145 113.364 302.167 118.067L302.213 128.271C302.233 132.702 301.738 135.506 300.661 136.641C299.628 137.777 297.159 138.413 293.309 138.567L293.169 107.859Z" fill="black"/>
<path d="M399.987 48.6883C384.328 39.3907 386.274 46.6941 386.274 46.6941L368.743 78.6126C354.878 78.1359 341.216 85.4799 333.862 98.8691C323.285 118.128 329.766 142.681 348.288 153.679C366.811 164.677 390.403 157.979 400.981 138.721C408.334 125.332 407.475 109.365 400.034 97.1914L417.564 65.2728C417.564 65.2728 424.603 63.3041 408.944 54.0066L399.987 48.6883Z" fill="url(#paint10_linear_856_912)"/>
<path opacity="0.75" d="M367.583 153.78C386.078 153.689 401.001 138.026 400.913 118.796C400.826 99.5659 385.761 84.0505 367.266 84.1416C348.771 84.2326 333.849 99.8955 333.936 119.126C334.024 138.356 349.088 153.871 367.583 153.78Z" fill="url(#paint11_radial_856_912)"/>
<path d="M370.459 81.6062C348.1 79.0953 327.591 102.041 332.215 124.977C335.211 148.469 362.268 163.205 382.55 152.462C402.298 143.62 409.569 115.143 396.612 97.2574C402.618 85.6957 410.478 73.5702 415.31 62.2512C407.444 56.0843 398.645 50.524 389.432 47.1183C389.432 47.1183 376.538 70.4531 370.459 81.6062Z" fill="white"/>
<mask id="mask5_856_912" style="mask-type:alpha" maskUnits="userSpaceOnUse" x="331" y="47" width="85" height="110">
<path d="M370.459 81.606C348.1 79.0951 327.592 102.041 332.215 124.976C335.212 148.469 362.269 163.205 382.551 152.462C402.298 143.62 409.57 115.142 396.613 97.2572C402.619 85.6954 410.479 73.57 415.311 62.2509C407.444 56.084 398.645 50.5237 389.432 47.1181C389.432 47.1181 376.538 70.4528 370.459 81.606Z" fill="white"/>
</mask>
<g mask="url(#mask5_856_912)">
<path d="M369.951 107.021C351.709 107.111 345.533 114.082 335.022 109.98C324.511 105.878 326.411 106.695 323.089 105.247L323.32 155.994L412.879 155.553L412.699 116.145C412.699 116.145 408.154 118.426 400.754 115.893C393.354 113.36 384.881 106.947 369.951 107.021L369.951 107.021Z" fill="url(#paint12_linear_856_912)"/>
<path d="M380.219 99.982C382.144 102.16 385.404 102.303 387.499 100.301C389.594 98.2993 389.731 94.9106 387.806 92.7323C385.88 90.5539 382.621 90.411 380.526 92.4129C378.431 94.4149 378.293 97.8037 380.219 99.982Z" fill="#00C3A1"/>
<path d="M381.78 110.511C382.743 111.6 384.373 111.671 385.42 110.67C386.468 109.669 386.536 107.975 385.574 106.886C384.611 105.797 382.981 105.725 381.934 106.726C380.886 107.727 380.818 109.422 381.78 110.511Z" fill="#00C3A1"/>
<path d="M363.687 110.882C366.575 114.149 371.464 114.364 374.607 111.361C377.749 108.358 377.956 103.275 375.067 100.007C372.179 96.7399 367.29 96.5254 364.148 99.5284C361.005 102.531 360.799 107.614 363.687 110.882Z" fill="#00C3A1"/>
<path d="M369.712 93.1038C370.675 94.193 372.305 94.2644 373.352 93.2635C374.4 92.2625 374.469 90.5681 373.506 89.4789C372.543 88.3898 370.913 88.3183 369.866 89.3193C368.818 90.3203 368.75 92.0147 369.712 93.1038Z" fill="#00C3A1"/>
<path d="M350.715 114.448C352.64 116.626 355.9 116.769 357.995 114.767C360.09 112.765 360.227 109.377 358.302 107.198C356.376 105.02 353.117 104.877 351.022 106.879C348.927 108.881 348.789 112.27 350.715 114.448Z" fill="#00C3A1"/>
</g>
<g opacity="0.75">
<path opacity="0.75" d="M367.583 153.78C386.078 153.689 401 138.026 400.913 118.796C400.825 99.5659 385.761 84.0505 367.266 84.1416C348.771 84.2326 333.848 99.8955 333.936 119.126C334.023 138.356 349.088 153.871 367.583 153.78Z" fill="url(#paint13_radial_856_912)"/>
<path opacity="0.75" d="M367.583 153.78C386.078 153.689 401 138.026 400.913 118.796C400.825 99.5659 385.761 84.0505 367.266 84.1416C348.771 84.2326 333.848 99.8955 333.936 119.126C334.023 138.356 349.088 153.871 367.583 153.78Z" fill="url(#paint14_radial_856_912)"/>
</g>
</mask>
<g mask="url(#mask4_856_912)">
<rect x="254.64" y="28.7949" width="346.16" height="143.967" fill="white"/>
</g>
<path d="M263.094 44.781L263.588 149.271L294.881 149.123C305.755 149.071 312.904 148.397 316.409 147.132C319.913 145.868 322.451 143.534 324.019 140.127C325.318 137.379 326.072 133.414 326.301 128.291C322.886 120.188 322.144 111.057 324.38 102.312C323.97 101.33 323.465 100.446 322.928 99.6664C320.687 96.3635 316.473 94.013 310.216 92.6225C315.818 91.3051 319.558 89.4578 321.43 87.0391C323.345 84.6203 324.276 80.322 324.247 74.2115C324.204 65.175 322.824 58.6599 320.107 54.6276C317.391 50.5525 313.829 47.8533 309.413 46.5401C305.04 45.2269 298.59 44.6131 290.07 44.6533L263.094 44.781ZM484.528 43.7328L485.022 148.223L511.729 148.096L511.234 43.6064L484.528 43.7328ZM410.961 51.4998C412.449 52.5195 413.642 53.4501 414.571 54.3153C416.326 55.9475 417.346 57.376 417.562 59.1121C417.777 60.8482 416.73 62.4212 415.872 63.0768C415.619 63.2701 415.611 63.2269 415.379 63.3489L405.88 79.9399L406.08 122.069C406.12 130.589 406.394 136.02 406.876 138.341C407.358 140.62 408.567 142.641 410.502 144.439C412.437 146.194 414.644 147.32 417.172 147.824C419.7 148.286 423.947 148.512 429.855 148.484L440.331 148.434L440.265 134.631C436.027 134.651 433.579 134.319 432.977 133.676C432.417 133.034 432.15 129.875 432.123 124.238L431.906 78.4229L438.875 78.3899L438.811 64.8566L431.842 64.8896L431.778 51.4012L410.961 51.4998ZM445.806 51.3348L445.87 64.8232L440.295 64.8496L440.359 78.3829L445.934 78.3565L446.14 121.879C446.18 130.399 446.455 135.83 446.936 138.151C447.418 140.43 448.627 142.451 450.562 144.249C452.497 146.004 454.749 147.13 457.278 147.634C459.806 148.096 464.007 148.322 469.915 148.294L480.391 148.244L480.326 134.441C476.087 134.461 473.64 134.129 473.037 133.487C472.478 132.844 472.21 129.686 472.183 124.049L471.967 78.2333L478.98 78.2001L478.916 64.6668L471.902 64.7L471.839 51.2116L445.806 51.3348ZM548.499 60.6954C542.548 60.7237 537.259 61.932 532.689 64.2773C528.119 66.5797 524.881 69.9047 522.89 74.2603C520.898 78.5731 519.881 84.4571 519.916 91.9446L520.034 116.943C520.065 123.312 520.537 128.152 521.452 131.504C522.367 134.813 524.026 137.867 526.351 140.653C528.719 143.396 531.981 145.554 536.184 147.126C540.387 148.698 545.238 149.466 550.718 149.44C556.369 149.414 561.062 148.6 564.779 146.991C568.539 145.338 571.627 142.902 574.052 139.663C576.477 136.424 578.011 133.402 578.64 130.559C579.311 127.716 579.596 123.618 579.571 118.325L579.541 111.985L554.947 112.102L555.001 123.432C555.021 127.692 554.73 130.56 554.053 132.069C553.417 133.535 552.076 134.282 550.106 134.291C548.522 134.298 547.468 133.759 546.906 132.642C546.344 131.526 546.035 129.011 546.016 125.138L545.929 106.614L579.515 106.455L579.461 95.0798C579.422 86.7748 578.44 80.3574 576.492 75.8051C574.587 71.2097 571.269 67.5682 566.504 64.8366C561.781 62.062 555.777 60.6611 548.499 60.6954ZM290.2 62.5027C292.983 62.5327 294.879 62.7209 295.823 63.0606C296.809 63.4002 297.567 64.2363 298.173 65.5673C298.778 66.8555 299.089 69.1269 299.104 72.3972C299.134 78.5938 298.8 82.3951 298.079 83.7325C297.357 85.0269 295.662 85.6774 293.007 85.6899C292.365 85.693 291.466 85.6986 290.31 85.7475L290.2 62.5026L290.2 62.5027ZM549.785 75.8866C551.24 75.8797 552.195 76.5176 552.672 77.8063C553.149 79.095 553.411 81.9583 553.432 86.3904L553.461 92.64L545.863 92.676L545.833 86.4264C545.81 81.607 546.043 78.6438 546.466 77.5659C546.889 76.4451 547.987 75.8951 549.785 75.8866ZM290.387 102.024C294.412 102.134 296.912 102.665 297.858 103.607C298.804 104.549 299.269 107.263 299.291 111.738L299.337 121.45C299.356 125.667 298.866 128.335 297.801 129.415C296.778 130.496 294.335 131.101 290.525 131.248L290.387 102.024Z" fill="black"/>
<path d="M396.083 45.7128C380.589 36.8644 382.514 43.8149 382.514 43.8149L365.168 74.191C351.448 73.7373 337.929 80.7265 330.653 93.4686C320.187 111.797 326.599 135.164 344.927 145.63C363.255 156.096 386.6 149.722 397.067 131.395C404.343 118.652 403.492 103.458 396.13 91.872L413.476 61.4958C413.476 61.4958 420.441 59.6223 404.946 50.774L396.083 45.7128Z" fill="url(#paint15_linear_856_912)"/>
<path opacity="0.75" d="M364.02 145.726C382.321 145.64 397.086 130.734 397 112.433C396.913 94.132 382.007 79.3664 363.706 79.453C345.405 79.5396 330.64 94.4457 330.726 112.747C330.813 131.048 345.719 145.813 364.02 145.726Z" fill="url(#paint16_radial_856_912)"/>
<path d="M366.865 77.0399C344.741 74.6503 324.448 96.4872 329.023 118.315C331.988 140.672 358.761 154.696 378.83 144.472C398.37 136.057 405.565 108.956 392.744 91.9348C398.687 80.9317 406.465 69.3922 411.246 58.6202C403.462 52.7513 394.755 47.4597 385.639 44.2186C385.639 44.2186 372.881 66.4257 366.865 77.0399Z" fill="white"/>
<mask id="mask6_856_912" style="mask-type:alpha" maskUnits="userSpaceOnUse" x="328" y="44" width="84" height="104">
<path d="M366.866 77.0397C344.741 74.6501 324.448 96.4869 329.023 118.314C331.988 140.671 358.761 154.695 378.83 144.471C398.37 136.057 405.566 108.956 392.745 91.9346C398.688 80.9315 406.465 69.392 411.246 58.6199C403.462 52.751 394.756 47.4594 385.64 44.2184C385.64 44.2184 372.881 66.4255 366.866 77.0397Z" fill="white"/>
</mask>
<g mask="url(#mask6_856_912)">
<path d="M366.363 101.226C348.312 101.311 342.201 107.946 331.8 104.042C321.4 100.138 323.28 100.916 319.993 99.5378L320.221 147.833L408.84 147.413L408.662 109.909C408.662 109.909 404.165 112.081 396.843 109.67C389.52 107.259 381.136 101.156 366.363 101.226L366.363 101.226Z" fill="url(#paint17_linear_856_912)"/>
<path d="M376.523 94.5275C378.428 96.6005 381.653 96.7366 383.726 94.8314C385.799 92.9261 385.935 89.7011 384.03 87.6281C382.125 85.555 378.9 85.419 376.827 87.3242C374.754 89.2294 374.618 92.4544 376.523 94.5275Z" fill="#00C3A1"/>
<path d="M378.068 104.547C379.021 105.584 380.633 105.652 381.67 104.699C382.706 103.747 382.774 102.134 381.822 101.098C380.869 100.061 379.256 99.9932 378.22 100.946C377.183 101.898 377.115 103.511 378.068 104.547Z" fill="#00C3A1"/>
<path d="M360.165 104.901C363.023 108.01 367.86 108.214 370.97 105.357C374.079 102.499 374.283 97.6613 371.426 94.5517C368.568 91.4422 363.73 91.2381 360.621 94.0959C357.511 96.9538 357.307 101.791 360.165 104.901Z" fill="#00C3A1"/>
<path d="M366.127 87.9818C367.08 89.0183 368.692 89.0863 369.729 88.1337C370.765 87.1811 370.833 85.5686 369.881 84.5321C368.928 83.4955 367.315 83.4275 366.279 84.3801C365.242 85.3327 365.174 86.9453 366.127 87.9818Z" fill="#00C3A1"/>
<path d="M347.329 108.295C349.234 110.368 352.459 110.504 354.532 108.598C356.605 106.693 356.741 103.468 354.836 101.395C352.931 99.3221 349.706 99.1861 347.633 101.091C345.56 102.997 345.424 106.222 347.329 108.295Z" fill="#00C3A1"/>
</g>
<g opacity="0.75">
<path opacity="0.75" d="M364.02 145.726C382.321 145.64 397.086 130.734 397 112.433C396.913 94.132 382.007 79.3664 363.706 79.453C345.405 79.5396 330.64 94.4457 330.726 112.747C330.813 131.048 345.719 145.813 364.02 145.726Z" fill="url(#paint18_radial_856_912)"/>
<path opacity="0.75" d="M364.02 145.726C382.321 145.64 397.086 130.734 397 112.433C396.913 94.132 382.007 79.3664 363.706 79.453C345.405 79.5396 330.64 94.4457 330.726 112.747C330.813 131.048 345.719 145.813 364.02 145.726Z" fill="url(#paint19_radial_856_912)"/>
</g>
<path d="M235.58 189.471C225.551 186.053 156.762 164.895 190.024 146.39C192.856 144.817 207.641 138.675 213.793 149.349C218.305 130.286 238.324 129.158 250.434 143.338C254.34 125.945 272.758 129.046 280.834 139.393C280.004 116.292 316.811 106.502 319.926 132.923C329.594 113.719 358.188 119.632 361.625 139.065C382.192 126.067 393.832 133.758 400.961 151.614C412.25 138.431 430.219 138.045 440.668 150.423C448.891 135.975 460.932 133.445 471.147 147.986C473.09 138.675 474.74 129.773 484.477 124.578C495.942 118.465 505.981 123.992 510.551 134.261C513.647 121.473 522.309 113.753 535.492 112.576C552.524 111.072 556.049 120.862 561.127 131.683C572.035 115.364 609.321 121.365 606.156 144.227C606.508 141.663 618.031 133.514 635.317 134.368C647.602 134.988 654.438 147.156 657.182 146.409C662.963 144.822 668.598 144.344 672.885 151.741C680.453 164.812 670.414 180.848 660.063 188.66C648.129 197.644 633.227 202.483 619.028 206.512C601.283 211.556 579.789 215.115 561.781 216.741C473.149 224.759 379.994 213.089 294.496 195.726C275.453 191.853 253.949 195.73 235.58 189.471Z" fill="#FFFFFE"/>
<path d="M235.58 189.471L236.175 187.726C234.114 187.024 229.726 185.621 224.257 183.661C216.065 180.726 205.478 176.539 197.053 171.745C192.842 169.353 189.178 166.802 186.659 164.271C185.398 163.008 184.428 161.755 183.794 160.566C183.158 159.373 182.856 158.263 182.856 157.199C182.863 155.853 183.315 154.491 184.559 152.93C185.802 151.381 187.864 149.697 190.92 148C191.234 147.826 191.818 147.536 192.571 147.22C194.833 146.259 198.676 145.039 202.38 145.047C204.331 145.047 206.227 145.375 207.886 146.173C209.547 146.976 211.008 148.221 212.196 150.269C212.574 150.925 213.311 151.282 214.06 151.172C214.809 151.063 215.413 150.509 215.587 149.773C216.764 144.815 219.002 141.304 221.786 139.003C224.575 136.705 227.951 135.581 231.585 135.576C237.428 135.57 243.933 138.562 249.032 144.535C249.486 145.067 250.198 145.295 250.877 145.127C251.556 144.959 252.079 144.424 252.232 143.742C253.159 139.64 254.881 136.967 256.968 135.27C259.058 133.578 261.589 132.808 264.35 132.804C267.021 132.801 269.88 133.552 272.519 134.906C275.16 136.258 277.573 138.208 279.381 140.527C279.874 141.159 280.712 141.399 281.465 141.124C282.218 140.85 282.705 140.127 282.676 139.326C282.668 139.09 282.664 138.857 282.664 138.625C282.665 135.67 283.337 132.993 284.501 130.606C286.246 127.029 289.121 124.102 292.506 122.076C295.888 120.048 299.766 118.939 303.41 118.941C307.017 118.945 310.355 120.003 312.945 122.237C315.529 124.476 317.473 127.937 318.095 133.139C318.19 133.946 318.805 134.597 319.606 134.738C320.406 134.879 321.207 134.478 321.572 133.752C323.47 129.99 326.1 127.336 329.123 125.584C332.146 123.837 335.581 123.001 339.057 123.001C343.782 122.998 348.561 124.558 352.339 127.388C356.119 130.223 358.902 134.275 359.81 139.386C359.917 139.993 360.316 140.502 360.88 140.751C361.444 141.001 362.089 140.953 362.61 140.624C369.509 136.26 375.222 134.405 379.873 134.411C382.093 134.412 384.086 134.822 385.93 135.596C388.692 136.758 391.149 138.762 393.369 141.582C395.587 144.398 397.543 148.022 399.249 152.298C399.489 152.898 400.022 153.327 400.66 153.433C401.298 153.538 401.941 153.304 402.361 152.813C407.866 146.392 414.94 143.27 421.799 143.267C428.248 143.275 434.525 146.014 439.26 151.612C439.649 152.073 440.236 152.314 440.837 152.258C441.439 152.203 441.971 151.859 442.27 151.335C444.408 147.574 446.787 144.725 449.214 142.86C451.649 140.992 454.085 140.1 456.521 140.097C458.578 140.1 460.697 140.732 462.912 142.17C465.122 143.607 467.404 145.864 469.638 149.046C470.06 149.647 470.8 149.94 471.519 149.792C472.238 149.643 472.801 149.081 472.951 148.363C473.921 143.692 474.813 139.273 476.562 135.514C477.435 133.632 478.513 131.911 479.924 130.357C481.336 128.805 483.084 127.412 485.345 126.204C488.407 124.573 491.273 123.872 493.9 123.871C497.162 123.875 500.095 124.945 502.65 126.869C505.199 128.793 507.347 131.594 508.867 135.01C509.188 135.732 509.931 136.168 510.718 136.096C511.505 136.025 512.157 135.463 512.343 134.694C513.823 128.596 516.577 123.846 520.453 120.451C524.332 117.062 529.38 114.977 535.656 114.412C536.776 114.313 537.828 114.266 538.817 114.266C542.171 114.267 544.781 114.805 546.905 115.71C548.499 116.391 549.831 117.281 551.017 118.363C552.794 119.983 554.24 122.058 555.573 124.469C556.906 126.877 558.118 129.608 559.458 132.466C559.741 133.067 560.326 133.471 560.989 133.521C561.651 133.571 562.29 133.259 562.66 132.707C564.519 129.925 567.27 127.827 570.568 126.412C573.861 124.999 577.685 124.29 581.549 124.291C587.354 124.285 593.226 125.9 597.502 128.866C599.645 130.348 601.391 132.152 602.6 134.251C603.809 136.353 604.5 138.751 604.503 141.534C604.502 142.316 604.447 143.129 604.33 143.975C604.263 144.462 604.39 144.947 604.687 145.34C604.985 145.732 605.417 145.986 605.905 146.053C606.393 146.12 606.878 145.993 607.27 145.695C607.663 145.397 607.916 144.965 607.983 144.477L607.394 144.396L607.957 144.593L607.983 144.477L607.394 144.396L607.957 144.593L607.929 144.584L607.956 144.596L607.957 144.593L607.929 144.584L607.956 144.596C607.967 144.556 608.14 144.268 608.473 143.922C609.054 143.303 610.091 142.459 611.495 141.597C613.604 140.296 616.544 138.926 620.145 137.891C623.746 136.855 628.01 136.149 632.796 136.149C633.592 136.149 634.401 136.168 635.225 136.209C637.915 136.346 640.32 137.091 642.5 138.162C645.768 139.768 648.499 142.119 650.715 144.143C651.827 145.155 652.804 146.082 653.726 146.82C654.189 147.189 654.638 147.514 655.134 147.782C655.63 148.042 656.191 148.277 656.926 148.285C657.165 148.286 657.415 148.255 657.659 148.19L657.67 148.187C659.608 147.653 661.449 147.281 663.104 147.283C664.664 147.288 666.037 147.589 667.361 148.367C668.683 149.15 670.007 150.456 671.29 152.665C672.968 155.569 673.685 158.59 673.688 161.685C673.693 166.464 671.923 171.433 669.161 175.918C666.406 180.401 662.674 184.383 658.952 187.189L658.954 187.187C647.364 195.924 632.68 200.729 618.524 204.738C600.934 209.74 579.514 213.291 561.616 214.905C542.09 216.671 522.339 217.48 502.493 217.48C432.529 217.48 361.391 207.43 294.863 193.919C285.091 191.936 274.856 191.951 264.84 191.651C254.822 191.359 245.036 190.751 236.175 187.726L234.986 191.215C244.493 194.45 254.644 195.034 264.731 195.336C274.82 195.63 284.859 195.643 294.129 197.532C360.811 211.073 432.176 221.165 502.493 221.166C522.439 221.166 542.301 220.354 561.947 218.577C580.064 216.94 601.633 213.371 619.532 208.285C633.774 204.237 648.894 199.365 661.171 190.133L661.173 190.131C665.275 187.032 669.277 182.761 672.301 177.85C675.317 172.941 677.369 167.374 677.374 161.685C677.378 158.014 676.498 154.298 674.48 150.817C672.965 148.199 671.204 146.354 669.237 145.193C667.273 144.028 665.155 143.592 663.104 143.597C660.913 143.599 658.773 144.063 656.694 144.631L656.705 144.628L656.926 145.453V144.599L656.705 144.628L656.926 145.453V144.599V145.128L657.04 144.609L656.926 144.599V145.128L657.04 144.609L657.008 144.757L657.047 144.611L657.04 144.609L657.008 144.757L657.047 144.611L656.997 144.592C656.857 144.537 656.496 144.316 656.053 143.96C655.266 143.337 654.204 142.33 652.942 141.185C651.043 139.464 648.669 137.416 645.765 135.732C642.864 134.049 639.405 132.728 635.41 132.527C634.522 132.483 633.651 132.462 632.796 132.462C624.565 132.463 617.734 134.398 612.864 136.684C610.427 137.829 608.48 139.058 607.058 140.223C606.346 140.809 605.764 141.376 605.303 141.953C605.073 142.244 604.872 142.537 604.702 142.86C604.536 143.183 604.393 143.535 604.33 143.976C604.192 144.985 604.897 145.914 605.905 146.053C606.914 146.191 607.843 145.487 607.983 144.478C608.121 143.473 608.189 142.491 608.189 141.534C608.192 138.129 607.318 135.047 605.795 132.41C603.508 128.447 599.823 125.502 595.557 123.548C591.284 121.593 586.404 120.607 581.549 120.605C577.239 120.606 572.944 121.384 569.116 123.024C565.292 124.662 561.919 127.181 559.595 130.658L561.127 131.683L562.796 130.899C561.623 128.401 560.516 125.915 559.272 123.561C557.409 120.038 555.221 116.77 551.959 114.373C550.333 113.178 548.447 112.218 546.27 111.57C544.092 110.92 541.628 110.579 538.817 110.579C537.711 110.579 536.55 110.632 535.33 110.74C528.421 111.352 522.546 113.716 518.025 117.677C513.499 121.634 510.375 127.137 508.759 133.827L510.551 134.261L512.235 133.511C510.496 129.605 507.996 126.289 504.872 123.928C501.754 121.566 497.991 120.18 493.9 120.184C490.607 120.183 487.127 121.074 483.609 122.951C481.001 124.342 478.892 126.01 477.195 127.878C474.647 130.682 473.045 133.909 471.906 137.265C470.766 140.624 470.07 144.128 469.342 147.61L471.147 147.986L472.655 146.927C470.215 143.456 467.634 140.847 464.923 139.08C462.218 137.315 459.36 136.408 456.521 136.411C453.15 136.408 449.889 137.682 446.965 139.938C444.033 142.198 441.389 145.433 439.066 149.511L440.668 150.423L442.077 149.234C436.686 142.836 429.306 139.572 421.799 139.58C413.809 139.577 405.694 143.245 399.561 150.415L400.961 151.614L402.673 150.931C400.272 144.925 397.351 139.935 393.61 136.365C391.74 134.583 389.658 133.164 387.359 132.198C385.061 131.23 382.553 130.723 379.873 130.724C374.234 130.73 367.902 132.921 360.64 137.507L361.625 139.065L363.44 138.744C362.368 132.656 358.992 127.754 354.547 124.436C350.099 121.111 344.584 119.317 339.057 119.314C334.993 119.314 330.911 120.292 327.278 122.393C323.645 124.489 320.479 127.718 318.279 132.094L319.926 132.923L321.757 132.707C321.068 126.79 318.717 122.339 315.353 119.445C311.995 116.546 307.731 115.251 303.41 115.255C297.568 115.263 291.543 117.563 286.889 121.616C284.565 123.645 282.587 126.123 281.188 128.988C279.789 131.852 278.976 135.104 278.977 138.625C278.977 138.901 278.982 139.18 278.992 139.459L280.834 139.393L282.287 138.258C280.119 135.482 277.302 133.216 274.201 131.625C271.098 130.037 267.704 129.119 264.35 129.117C260.9 129.112 257.465 130.116 254.645 132.406C251.822 134.691 249.691 138.206 248.635 142.934L250.434 143.338L251.836 142.141C246.13 135.463 238.684 131.895 231.585 131.89C227.184 131.885 222.913 133.289 219.44 136.159C215.962 139.026 213.321 143.322 211.999 148.924L213.793 149.349L215.39 148.428C213.864 145.768 211.771 143.94 209.481 142.849C207.189 141.751 204.735 141.361 202.38 141.361C199.392 141.363 196.538 141.983 194.202 142.707C193.034 143.07 191.997 143.461 191.139 143.822C190.278 144.186 189.605 144.514 189.129 144.778C185.796 146.635 183.353 148.554 181.687 150.619C180.022 152.674 179.162 154.939 179.169 157.199C179.17 159.577 180.08 161.824 181.511 163.879C184.032 167.479 188.173 170.691 193.08 173.686C200.443 178.16 209.573 182.07 217.553 185.114C221.542 186.634 225.24 187.935 228.274 188.969C231.306 190.001 233.683 190.771 234.986 191.215L235.58 189.471Z" fill="#B7E0ED"/>
<path d="M522.985 12.5601C538.747 9.44011 554.04 19.6691 557.165 35.4161C560.29 51.1681 550.055 66.4611 534.313 69.5861C518.571 72.7161 503.268 62.4871 500.133 46.7301C497.008 30.9881 507.243 15.6901 522.985 12.5601Z" fill="#C4E6F0"/>
<path d="M549.098 31.9151C552.243 47.6571 542.008 62.9601 526.257 66.0851C521.764 66.9741 517.321 66.7491 513.19 65.6551C519.255 69.4791 526.735 71.0901 534.313 69.5861C550.055 66.4611 560.29 51.1681 557.165 35.4161C554.938 24.1521 546.462 15.7431 536.061 12.9941C542.585 17.1011 547.487 23.7511 549.098 31.9151Z" fill="#94D3E9"/>
<path d="M523.337 21.6521C523.307 22.0181 523.122 22.4431 522.731 22.9261C521.735 24.1711 519.967 24.8551 518.61 25.6411C516.657 26.7881 515.426 28.2581 514.469 30.2841C513.688 31.9151 512.282 34.6301 510.046 34.4841C508.249 34.3761 507.243 32.4961 507.731 30.9781C508.2 29.5571 509.303 28.2241 510.251 27.1111C512.633 24.3321 516.286 21.1391 519.88 20.2011C521.462 19.7961 523.434 20.3091 523.337 21.6521Z" fill="#FFFFFE"/>
<path d="M529.352 17.086C531.53 16.656 533.649 18.058 534.079 20.24C534.508 22.418 533.092 24.532 530.915 24.957C528.747 25.392 526.628 23.981 526.188 21.803C525.758 19.625 527.184 17.511 529.352 17.086Z" fill="#FFFFFE"/>
<path d="M486.702 113.434C498.89 111.017 510.735 118.927 513.147 131.12C515.569 143.317 507.659 155.158 495.472 157.575C483.274 159.992 471.429 152.082 469.007 139.88C466.585 127.692 474.515 115.851 486.702 113.434Z" fill="#C4E6F0"/>
<path d="M506.917 128.415C509.329 140.602 501.409 152.443 489.222 154.865C485.755 155.553 482.317 155.383 479.104 154.533C483.811 157.487 489.593 158.742 495.472 157.575C507.659 155.158 515.569 143.317 513.147 131.12C511.429 122.404 504.866 115.895 496.819 113.766C501.868 116.95 505.667 122.096 506.917 128.415Z" fill="#94D3E9"/>
<path d="M486.976 120.466C486.936 120.749 486.809 121.086 486.497 121.462C485.726 122.424 484.358 122.951 483.313 123.566C481.79 124.445 480.843 125.588 480.101 127.15C479.495 128.42 478.411 130.514 476.683 130.407C475.296 130.319 474.515 128.864 474.886 127.687C475.257 126.593 476.106 125.558 476.839 124.694C478.675 122.546 481.507 120.075 484.3 119.352C485.52 119.035 487.034 119.44 486.976 120.466Z" fill="#FFFFFE"/>
<path d="M491.624 116.935C493.304 116.598 494.944 117.692 495.276 119.377C495.618 121.061 494.515 122.697 492.835 123.029C491.155 123.366 489.515 122.272 489.183 120.588C488.851 118.908 489.944 117.267 491.624 116.935Z" fill="#FFFFFE"/>
<path d="M583.227 58.323C591.664 56.648 599.858 62.132 601.528 70.564C603.207 79.007 597.719 87.195 589.291 88.87C580.854 90.545 572.66 85.066 570.981 76.624C569.311 68.186 574.789 59.998 583.227 58.323Z" fill="#C4E6F0"/>
<path d="M597.211 68.6941C598.891 77.1271 593.403 85.3201 584.975 86.9951C582.572 87.4741 580.199 87.3561 577.973 86.7701C581.225 88.8111 585.229 89.6811 589.291 88.8701C597.719 87.1951 603.207 79.0071 601.528 70.5641C600.336 64.5391 595.785 60.0271 590.219 58.5581C593.715 60.7551 596.352 64.3191 597.211 68.6941Z" fill="#94D3E9"/>
<path d="M583.412 63.1862C583.403 63.3872 583.305 63.6212 583.09 63.8802C582.553 64.5492 581.606 64.9102 580.883 65.3302C579.828 65.9452 579.174 66.7312 578.656 67.8202C578.246 68.6942 577.494 70.1442 576.293 70.0712C575.336 70.0082 574.789 68.9972 575.063 68.1862C575.297 67.4302 575.883 66.7122 576.41 66.1112C577.68 64.6272 579.633 62.9232 581.567 62.4202C582.406 62.1952 583.461 62.4782 583.412 63.1862Z" fill="#FFFFFE"/>
<path d="M586.635 60.7452C587.797 60.5162 588.93 61.2722 589.164 62.4392C589.399 63.6022 588.637 64.7342 587.475 64.9692C586.313 65.1982 585.17 64.4362 584.946 63.2792C584.711 62.1122 585.473 60.9792 586.635 60.7452Z" fill="#FFFFFE"/>
<path d="M370.072 79.2412C376.625 77.9372 382.983 82.1952 384.281 88.7382C385.58 95.2812 381.332 101.639 374.78 102.937C368.237 104.246 361.879 99.9882 360.59 93.4402C359.281 86.8972 363.53 80.5402 370.072 79.2412Z" fill="#C4E6F0"/>
<path d="M380.922 87.278C382.231 93.831 377.983 100.188 371.43 101.482C369.574 101.853 367.729 101.766 366 101.302C368.53 102.894 371.625 103.572 374.78 102.937C381.332 101.639 385.58 95.281 384.281 88.738C383.354 84.061 379.828 80.569 375.502 79.417C378.227 81.121 380.258 83.894 380.922 87.278Z" fill="#94D3E9"/>
<path d="M370.219 83.0161C370.219 83.1671 370.131 83.3481 369.965 83.5531C369.555 84.0651 368.813 84.3491 368.256 84.6811C367.446 85.1541 366.938 85.7651 366.528 86.6041C366.215 87.2831 365.629 88.4111 364.701 88.3481C363.949 88.2991 363.53 87.5271 363.735 86.8881C363.93 86.3071 364.379 85.7501 364.789 85.2861C365.766 84.1341 367.289 82.8011 368.793 82.4151C369.438 82.2491 370.258 82.4641 370.219 83.0161Z" fill="#FFFFFE"/>
<path d="M372.719 81.1211C373.617 80.9361 374.506 81.5261 374.682 82.4351C374.858 83.3331 374.272 84.2121 373.364 84.3931C372.465 84.5731 371.586 83.9821 371.41 83.0841C371.235 82.1711 371.821 81.3021 372.719 81.1211Z" fill="#FFFFFE"/>
<path d="M254.34 91.8001C262.778 90.1251 270.981 95.6031 272.651 104.041C274.321 112.483 268.852 120.677 260.414 122.347C251.977 124.021 243.793 118.538 242.114 110.105C240.434 101.668 245.912 93.4701 254.34 91.8001Z" fill="#C4E6F0"/>
<path d="M268.334 102.166C270.004 110.603 264.535 118.797 256.098 120.472C253.696 120.945 251.313 120.828 249.106 120.242C252.348 122.293 256.352 123.157 260.414 122.347C268.852 120.677 274.321 112.483 272.651 104.041C271.449 98.0061 266.918 93.5041 261.352 92.0291C264.848 94.2311 267.465 97.7911 268.334 102.166Z" fill="#94D3E9"/>
<path d="M254.535 96.6681C254.516 96.8681 254.418 97.0931 254.203 97.3521C253.676 98.0251 252.719 98.3871 252.006 98.8071C250.961 99.4171 250.297 100.213 249.78 101.292C249.36 102.166 248.617 103.621 247.406 103.543C246.449 103.484 245.903 102.478 246.176 101.663C246.43 100.906 247.016 100.188 247.524 99.5931C248.793 98.1031 250.756 96.3991 252.68 95.8961C253.52 95.6771 254.574 95.9501 254.535 96.6681Z" fill="#FFFFFE"/>
<path d="M257.758 94.2171C258.92 93.9921 260.063 94.7491 260.278 95.9111C260.512 97.0781 259.75 98.2111 258.598 98.4451C257.426 98.6751 256.293 97.9181 256.069 96.7461C255.824 95.5891 256.586 94.4511 257.758 94.2171Z" fill="#FFFFFE"/>
<path d="M607.309 114.109C607.406 113.89 607.485 113.689 607.485 113.445C605.893 113.538 604.408 115.052 602.797 115.511C600.903 116.053 598.813 115.794 596.86 115.97C591.938 116.409 596.625 122.508 599.477 122.767C599.477 122.767 609.028 125.945 610.61 121.404C610.61 121.404 605.61 117.664 607.309 114.109Z" fill="#EA893E"/>
<path d="M646.02 115.769C645.61 127.044 636.117 135.833 624.848 135.423C613.578 134.993 604.789 125.52 605.199 114.241C605.629 102.972 615.102 94.1782 626.371 94.5932C637.651 95.0182 646.449 104.495 646.02 115.769Z" fill="#F7C340"/>
<path d="M620.004 125.076C620.004 125.076 617.094 128.191 611.625 132.576C600.444 141.551 601.264 164.842 620.473 169.251C620.473 169.251 637.006 174.5 653.481 168.782C669.76 163.128 670.697 149.173 668.1 129.256C668.1 129.256 645.483 148.235 638.324 126.268L617.172 125.315" fill="#F7C340"/>
<path d="M630.395 136.814C634.75 137.972 637.748 141.814 642.133 142.991C647.231 144.373 651.557 145.208 656.342 142.381C656.86 144.3 656.918 160.574 642.035 163.343C635.815 164.505 631.459 163.992 625.551 161.663C622.817 160.589 620.082 158.992 618.461 156.482C612.172 146.78 620.541 134.192 630.395 136.814Z" fill="#EA893E"/>
<path d="M615.903 112.249C615.844 113.641 614.672 114.734 613.266 114.681C611.879 114.627 610.785 113.455 610.844 112.054C610.893 110.657 612.065 109.568 613.461 109.617C614.867 109.671 615.951 110.848 615.903 112.249Z" fill="#1A1919"/>
<path d="M265.395 367.068C264.36 365.672 263.022 364.261 261.606 362.747C259.858 360.911 253.49 356.604 253.862 355.193C253.891 355.061 254.457 354.383 256.508 353.577C259.155 352.552 260.356 349.812 259.184 347.478C258.012 345.149 254.926 344.09 252.27 345.125C247.465 347.005 244.574 349.69 243.666 353.099C242.114 358.992 247.192 364.368 251.274 368.68C252.504 369.964 253.637 371.18 254.33 372.112C256.723 375.379 258.637 379.329 258.832 383.245C258.949 385.374 258.52 388.489 256.401 389.852C253.91 391.448 250.209 392.156 247.231 391.775C245.258 391.521 243.315 390.76 241.801 389.598C246.322 388.431 249.633 384.744 249.633 380.374C249.633 375.061 244.75 370.75 238.735 370.75C236.303 370.75 234.067 371.463 232.25 372.654C231.137 373.245 230.063 373.973 229.076 374.837C224.301 379.026 223.656 384.036 225.571 389.827C227.192 394.72 231.547 400.174 237.836 402.142C240.883 403.099 244.164 403.562 247.367 403.562C252.553 403.562 256.518 403.309 260.297 400.994C272.914 393.245 273.09 377.532 265.395 367.068Z" fill="#6EA2CB"/>
<path d="M254.33 372.112C255.258 373.367 256.098 374.725 256.801 376.136C256.117 373.074 254.545 370.086 252.66 367.527C251.977 366.595 250.824 365.384 249.614 364.095C247.465 361.834 245.063 359.275 243.471 356.507C244.076 361.067 247.992 365.213 251.274 368.68C252.504 369.964 253.637 371.18 254.33 372.112Z" fill="#5391C1"/>
<path d="M268.071 371.59C270.453 380.652 267.934 390.691 258.617 396.409C254.858 398.719 250.883 398.973 245.707 398.973C242.485 398.973 239.223 398.509 236.166 397.561C230.951 395.926 227.104 391.902 225.004 387.786C225.151 388.455 225.346 389.139 225.571 389.827C227.192 394.72 231.547 400.174 237.836 402.142C240.883 403.099 244.164 403.562 247.367 403.562C252.553 403.562 256.518 403.309 260.297 400.994C271.215 394.295 272.807 381.653 268.071 371.59Z" fill="#5391C1"/>
<path d="M583.354 367.068C584.379 365.672 585.727 364.261 587.153 362.747C588.891 360.911 595.258 356.604 594.887 355.193C594.848 355.061 594.291 354.383 592.231 353.577C589.594 352.552 588.383 349.812 589.565 347.478C590.727 345.149 593.813 344.09 596.469 345.125C601.274 347.005 604.184 349.69 605.072 353.099C606.635 358.992 601.547 364.368 597.465 368.68C596.254 369.964 595.102 371.18 594.408 372.112C592.016 375.379 590.102 379.329 589.906 383.245C589.789 385.374 590.219 388.489 592.338 389.852C594.828 391.448 598.53 392.156 601.518 391.775C603.481 391.521 605.434 390.76 606.938 389.598C602.426 388.431 599.115 384.744 599.115 380.374C599.115 375.061 603.989 370.75 610.004 370.75C612.446 370.75 614.672 371.463 616.489 372.654C617.602 373.245 618.676 373.973 619.672 374.837C624.447 379.026 625.082 384.036 623.168 389.827C621.547 394.72 617.201 400.174 610.912 402.142C607.856 403.099 604.594 403.562 601.371 403.562C596.186 403.562 592.231 403.309 588.451 400.994C575.824 393.245 575.649 377.532 583.354 367.068Z" fill="#6EA2CB"/>
<path d="M594.408 372.112C593.49 373.367 592.651 374.725 591.938 376.136C592.631 373.074 594.203 370.086 596.078 367.527C596.772 366.595 597.914 365.384 599.135 364.095C601.274 361.834 603.676 359.275 605.278 356.507C604.662 361.067 600.746 365.213 597.465 368.68C596.254 369.964 595.102 371.18 594.408 372.112Z" fill="#5391C1"/>
<path d="M580.678 371.59C578.285 380.652 580.805 390.691 590.121 396.409C593.891 398.719 597.856 398.973 603.031 398.973C606.254 398.973 609.526 398.509 612.582 397.561C617.787 395.926 621.645 391.902 623.744 387.786C623.588 388.455 623.393 389.139 623.168 389.827C621.547 394.72 617.201 400.174 610.912 402.142C607.856 403.099 604.594 403.562 601.371 403.562C596.186 403.562 592.231 403.309 588.451 400.994C577.533 394.295 575.942 381.653 580.678 371.59Z" fill="#5391C1"/>
<path d="M445.492 201.946L172.592 188.328C184.985 199.539 188.402 222.703 192.387 237.298C201.43 270.403 202.631 313.88 231.645 337.796C237.66 342.747 245.795 348.777 253.198 352.347C286.742 368.528 419.35 369.637 444.985 369.524C445.082 369.524 445.268 369.524 445.492 369.524C445.707 369.524 445.893 369.524 445.99 369.524C471.625 369.637 561.996 368.528 595.551 352.347C602.953 348.777 611.088 342.747 617.104 337.796C646.117 313.88 647.319 270.403 656.352 237.298C660.336 222.703 663.754 199.539 676.147 188.328L445.492 201.946Z" fill="#85AACE"/>
<path d="M333.249 351.683C329.748 351.683 230.353 351.001 211.703 273.641C207.699 256.995 203.969 237.083 199.047 212.469C199.047 212.469 206.078 236.38 219.438 271.536C234.584 311.38 273.578 343.245 333.344 351.683C333.344 351.683 333.312 351.683 333.249 351.683Z" fill="#DCE6EE"/>
<path d="M629.252 191.097C619.008 203.02 615.785 223.811 612.114 237.298C603.08 270.403 601.86 313.88 572.856 337.796C566.84 342.747 558.705 348.777 551.303 352.347C523.871 365.579 458.481 368.724 421.508 369.373C432.055 369.524 440.307 369.544 444.985 369.524C445.082 369.524 445.268 369.524 445.492 369.524C445.707 369.524 445.893 369.524 445.99 369.524C471.625 369.637 561.996 368.528 595.551 352.347C602.953 348.777 611.088 342.747 617.104 337.796C646.117 313.88 647.319 270.403 656.352 237.298C660.336 222.703 663.754 199.539 676.147 188.328L629.252 191.097Z" fill="#6EA2CB"/>
<path d="M445.492 201.946L172.592 188.328C175.981 191.39 178.676 195.359 180.912 199.788C185.629 200.936 190.492 201.79 195.072 202.522C287.192 217.239 441.977 217.503 447.504 217.478C453.012 217.503 565.58 217.239 657.699 202.522C660.824 202.015 664.076 201.468 667.328 200.799C669.653 195.96 672.504 191.619 676.147 188.328L445.492 201.946Z" fill="#6EA2CB"/>
<path d="M699.692 166.453C699.086 158.406 691.84 152.381 682.289 155.418C678.559 156.6 646.489 162.63 634.164 164.017C594.428 168.479 585.981 170.52 546 172.059C499.604 173.836 510.473 175.892 464.047 175.892C458.53 175.892 453.012 175.872 447.504 175.852C441.977 175.872 436.469 175.892 430.961 175.892C384.516 175.892 353.168 173.836 306.762 172.059C266.781 170.52 258.344 168.479 218.608 164.017C206.274 162.63 174.203 156.6 170.473 155.418C160.922 152.381 153.676 158.406 153.08 166.453C151.43 188.245 175.678 193.382 195.072 196.482C287.192 211.209 441.977 211.468 447.504 211.443C453.012 211.468 565.58 211.209 657.699 196.482C677.084 193.382 701.332 188.245 699.692 166.453Z" fill="#85AACE"/>
<path d="M166.82 183.196C167.641 183.621 157.524 169.353 167.621 166.351C170.336 165.545 203.246 167.894 214.76 170.242C212.553 169.788 194.643 165.457 189.066 164.383C176.566 161.98 159.272 154.72 157.992 171.561C157.66 176.185 162.406 180.906 166.82 183.196Z" fill="#FFFFFE"/>
<path d="M231.996 376.375C231.996 376.375 243.364 370.75 246.811 381.351L246.889 381.199C247.612 379.563 246.684 377.669 245.649 376.409C244.184 374.607 241.957 372.767 237.485 373.147C235.278 373.343 233.285 374.544 231.996 376.375Z" fill="#FFFFFE"/>
<path d="M617.758 376.375C617.758 376.375 606.391 370.75 602.934 381.351L602.856 381.199C602.133 379.563 603.061 377.669 604.106 376.409C605.571 374.607 607.787 372.767 612.27 373.147C614.467 373.343 616.469 374.544 617.758 376.375Z" fill="#FFFFFE"/>
<path d="M283.715 147.444C294.672 145.267 305.317 152.391 307.485 163.348C309.653 174.31 302.543 184.954 291.586 187.127C280.629 189.305 269.985 182.186 267.807 171.228C265.629 160.262 272.748 149.617 283.715 147.444Z" fill="#C4E6F0"/>
<path d="M301.879 160.911C304.057 171.873 296.938 182.518 285.971 184.69C282.856 185.311 279.77 185.154 276.879 184.397C281.098 187.054 286.303 188.177 291.586 187.127C302.543 184.954 309.653 174.31 307.485 163.348C305.922 155.516 300.033 149.661 292.797 147.747C297.338 150.603 300.746 155.237 301.879 160.911Z" fill="#94D3E9"/>
<path d="M283.949 153.772C283.93 154.026 283.793 154.319 283.52 154.661C282.836 155.525 281.606 156.004 280.658 156.546C279.291 157.347 278.442 158.372 277.778 159.778C277.231 160.911 276.254 162.801 274.711 162.708C273.451 162.62 272.748 161.321 273.09 160.262C273.412 159.27 274.184 158.343 274.848 157.566C276.498 155.638 279.037 153.421 281.547 152.762C282.641 152.483 284.008 152.845 283.949 153.772Z" fill="#FFFFFE"/>
<path d="M288.129 150.594C289.653 150.291 291.117 151.277 291.41 152.786C291.723 154.3 290.727 155.774 289.223 156.072C287.699 156.375 286.235 155.394 285.942 153.875C285.629 152.361 286.615 150.896 288.129 150.594Z" fill="#FFFFFE"/>
<path d="M421.469 148.201C429.897 146.521 438.09 152 439.77 160.437C441.449 168.87 435.961 177.068 427.524 178.743C419.086 180.418 410.903 174.939 409.223 166.502C407.543 158.064 413.031 149.871 421.469 148.201Z" fill="#C4E6F0"/>
<path d="M435.444 158.558C437.123 167 431.645 175.193 423.207 176.868C420.805 177.342 418.422 177.22 416.205 176.634C419.457 178.68 423.461 179.554 427.524 178.743C435.961 177.068 441.449 168.87 439.77 160.437C438.569 154.402 434.028 149.9 428.461 148.431C431.957 150.628 434.574 154.192 435.444 158.558Z" fill="#94D3E9"/>
<path d="M421.645 153.06C421.625 153.255 421.528 153.484 421.322 153.753C420.785 154.422 419.838 154.783 419.115 155.208C418.071 155.818 417.406 156.6 416.899 157.688C416.469 158.562 415.727 160.018 414.535 159.944C413.569 159.881 413.022 158.875 413.285 158.064C413.539 157.303 414.125 156.585 414.633 155.984C415.912 154.5 417.865 152.786 419.789 152.293C420.649 152.068 421.694 152.352 421.645 153.06Z" fill="#FFFFFE"/>
<path d="M424.867 150.613C426.039 150.389 427.172 151.145 427.397 152.308C427.631 153.475 426.869 154.607 425.707 154.837C424.545 155.071 423.412 154.31 423.168 153.147C422.953 151.98 423.705 150.848 424.867 150.613Z" fill="#FFFFFE"/>
<path d="M588.803 143.797C604.555 140.667 619.848 150.901 622.973 166.648C626.108 182.395 615.873 197.693 600.121 200.828C584.379 203.953 569.076 193.719 565.961 177.967C562.826 162.225 573.051 146.917 588.803 143.797Z" fill="#C4E6F0"/>
<path d="M614.916 163.143C618.041 178.899 607.817 194.192 592.074 197.327C587.582 198.216 583.149 197.986 578.998 196.893C585.063 200.716 592.543 202.327 600.121 200.828C615.873 197.693 626.108 182.395 622.973 166.648C620.746 155.394 612.27 146.976 601.879 144.227C608.393 148.333 613.295 154.993 614.916 163.143Z" fill="#94D3E9"/>
<path d="M589.145 152.884C589.125 153.245 588.94 153.68 588.539 154.168C587.543 155.413 585.776 156.092 584.428 156.883C582.465 158.025 581.235 159.5 580.278 161.517C579.496 163.152 578.1 165.857 575.864 165.726C574.057 165.608 573.051 163.733 573.549 162.215C574.008 160.799 575.112 159.451 576.069 158.348C578.442 155.569 582.094 152.376 585.697 151.438C587.27 151.028 589.242 151.551 589.145 152.884Z" fill="#FFFFFE"/>
<path d="M595.16 148.318C597.338 147.884 599.457 149.3 599.887 151.477C600.317 153.655 598.901 155.76 596.733 156.199C594.555 156.629 592.446 155.218 592.006 153.04C591.576 150.867 592.992 148.748 595.16 148.318Z" fill="#FFFFFE"/>
<path d="M355.173 267.595C355.173 263.004 357.063 259.268 360.844 256.388C364.67 253.507 369.665 252.067 375.832 252.067C382.043 252.067 387.106 253.575 391.022 256.59C394.982 259.606 396.963 262.756 396.963 266.042C396.963 266.447 396.805 266.807 396.49 267.122C396.22 267.392 395.905 267.527 395.545 267.527H382.043C381.007 267.527 380.062 267.144 379.207 266.379C378.352 265.614 377.204 265.232 375.764 265.232C373.604 265.232 372.523 265.862 372.523 267.122C372.523 267.797 373.041 268.36 374.076 268.81C375.156 269.26 377.137 269.665 380.017 270.025C386.723 270.88 391.494 272.455 394.33 274.751C397.21 277.001 398.65 280.444 398.65 285.08C398.65 289.671 396.535 293.429 392.304 296.354C388.119 299.235 382.628 300.675 375.832 300.675C369.035 300.675 363.702 299.28 359.831 296.489C355.961 293.699 354.025 290.301 354.025 286.295C354.025 285.89 354.16 285.553 354.43 285.283C354.745 284.967 355.106 284.81 355.511 284.81H368.338C369.283 284.81 370.318 285.26 371.443 286.16C372.613 287.06 374.211 287.51 376.237 287.51C379.612 287.51 381.3 286.88 381.3 285.62C381.3 284.81 380.692 284.202 379.477 283.797C378.262 283.347 375.967 282.897 372.591 282.447C360.979 280.917 355.173 275.966 355.173 267.595ZM406.867 252.742H426.985C433.466 252.742 438.53 254.137 442.175 256.928C445.821 259.718 447.644 263.836 447.644 269.282C447.644 274.728 445.821 278.756 442.175 281.367C438.575 283.977 433.511 285.283 426.985 285.283H422.597V298.177C422.597 298.672 422.417 299.1 422.057 299.46C421.697 299.82 421.269 300 420.774 300H406.867C406.372 300 405.944 299.82 405.584 299.46C405.224 299.1 405.044 298.672 405.044 298.177V254.565C405.044 254.07 405.224 253.642 405.584 253.282C405.944 252.922 406.372 252.742 406.867 252.742ZM422.259 265.299V272.793H426.985C427.795 272.793 428.515 272.5 429.145 271.915C429.776 271.285 430.091 270.408 430.091 269.282C430.091 268.157 429.843 267.212 429.348 266.447C428.853 265.682 428.065 265.299 426.985 265.299H422.259ZM468.814 252.742H483.464C485.084 252.742 486.097 253.485 486.502 254.97L501.557 298.042C501.602 298.177 501.625 298.402 501.625 298.717C501.625 298.987 501.467 299.28 501.152 299.595C500.882 299.865 500.544 300 500.139 300H487.65C486.3 300 485.422 299.437 485.017 298.312L483.397 293.856H468.882L467.261 298.312C466.856 299.437 465.979 300 464.628 300H452.139C451.734 300 451.374 299.865 451.059 299.595C450.789 299.28 450.654 298.987 450.654 298.717C450.654 298.402 450.676 298.177 450.721 298.042L465.776 254.97C466.181 253.485 467.194 252.742 468.814 252.742ZM472.325 280.692H479.954L476.105 268.135L472.325 280.692Z" fill="#6898BD"/>
</g>
<defs>
<filter id="filter0_d_856_912" x="-4" y="0" width="860" height="424" filterUnits="userSpaceOnUse" color-interpolation-filters="sRGB">
<feFlood flood-opacity="0" result="BackgroundImageFix"/>
<feColorMatrix in="SourceAlpha" type="matrix" values="0 0 0 0 0 0 0 0 0 0 0 0 0 0 0 0 0 0 127 0" result="hardAlpha"/>
<feOffset dy="4"/>
<feGaussianBlur stdDeviation="2"/>
<feComposite in2="hardAlpha" operator="out"/>
<feColorMatrix type="matrix" values="0 0 0 0 0 0 0 0 0 0 0 0 0 0 0 0 0 0 0.25 0"/>
<feBlend mode="normal" in2="BackgroundImageFix" result="effect1_dropShadow_856_912"/>
<feBlend mode="normal" in="SourceGraphic" in2="effect1_dropShadow_856_912" result="shape"/>
</filter>
<linearGradient id="paint0_linear_856_912" x1="372.291" y1="110.053" x2="306.641" y2="16.3057" gradientUnits="userSpaceOnUse">
<stop/>
<stop offset="1" stop-color="white"/>
</linearGradient>
<radialGradient id="paint1_radial_856_912" cx="0" cy="0" r="1" gradientUnits="userSpaceOnUse" gradientTransform="translate(346.484 99.6322) rotate(-0.281891) scale(25.7606 26.7843)">
<stop stop-color="white"/>
<stop offset="1" stop-color="white" stop-opacity="0"/>
</radialGradient>
<linearGradient id="paint2_linear_856_912" x1="361.988" y1="110.104" x2="362.173" y2="147.601" gradientUnits="userSpaceOnUse">
<stop stop-color="#00C3A1"/>
<stop offset="1" stop-color="#006E5A"/>
</linearGradient>
<radialGradient id="paint3_radial_856_912" cx="0" cy="0" r="1" gradientUnits="userSpaceOnUse" gradientTransform="translate(346.483 99.6322) rotate(-0.281964) scale(51.5212 48.2118)">
<stop stop-color="white"/>
<stop offset="1" stop-color="white" stop-opacity="0"/>
</radialGradient>
<radialGradient id="paint4_radial_856_912" cx="0" cy="0" r="1" gradientUnits="userSpaceOnUse" gradientTransform="translate(346.483 99.6322) rotate(-0.281891) scale(25.7606 26.7843)">
<stop stop-color="white"/>
<stop offset="1" stop-color="white" stop-opacity="0"/>
</radialGradient>
<linearGradient id="paint5_linear_856_912" x1="380.291" y1="110.053" x2="314.641" y2="16.3057" gradientUnits="userSpaceOnUse">
<stop/>
<stop offset="1" stop-color="white"/>
</linearGradient>
<radialGradient id="paint6_radial_856_912" cx="0" cy="0" r="1" gradientUnits="userSpaceOnUse" gradientTransform="translate(354.484 99.6322) rotate(-0.281891) scale(25.7606 26.7843)">
<stop stop-color="white"/>
<stop offset="1" stop-color="white" stop-opacity="0"/>
</radialGradient>
<linearGradient id="paint7_linear_856_912" x1="369.988" y1="110.104" x2="370.173" y2="147.601" gradientUnits="userSpaceOnUse">
<stop stop-color="#00C3A1"/>
<stop offset="1" stop-color="#006E5A"/>
</linearGradient>
<radialGradient id="paint8_radial_856_912" cx="0" cy="0" r="1" gradientUnits="userSpaceOnUse" gradientTransform="translate(354.483 99.6322) rotate(-0.281964) scale(51.5212 48.2118)">
<stop stop-color="white"/>
<stop offset="1" stop-color="white" stop-opacity="0"/>
</radialGradient>
<radialGradient id="paint9_radial_856_912" cx="0" cy="0" r="1" gradientUnits="userSpaceOnUse" gradientTransform="translate(354.483 99.6322) rotate(-0.281891) scale(25.7606 26.7843)">
<stop stop-color="white"/>
<stop offset="1" stop-color="white" stop-opacity="0"/>
</radialGradient>
<linearGradient id="paint10_linear_856_912" x1="380.291" y1="116.053" x2="314.641" y2="22.3057" gradientUnits="userSpaceOnUse">
<stop/>
<stop offset="1" stop-color="white"/>
</linearGradient>
<radialGradient id="paint11_radial_856_912" cx="0" cy="0" r="1" gradientUnits="userSpaceOnUse" gradientTransform="translate(354.484 105.632) rotate(-0.281891) scale(25.7606 26.7843)">
<stop stop-color="white"/>
<stop offset="1" stop-color="white" stop-opacity="0"/>
</radialGradient>
<linearGradient id="paint12_linear_856_912" x1="369.988" y1="116.104" x2="370.173" y2="153.601" gradientUnits="userSpaceOnUse">
<stop stop-color="#00C3A1"/>
<stop offset="1" stop-color="#006E5A"/>
</linearGradient>
<radialGradient id="paint13_radial_856_912" cx="0" cy="0" r="1" gradientUnits="userSpaceOnUse" gradientTransform="translate(354.483 105.632) rotate(-0.281964) scale(51.5212 48.2118)">
<stop stop-color="white"/>
<stop offset="1" stop-color="white" stop-opacity="0"/>
</radialGradient>
<radialGradient id="paint14_radial_856_912" cx="0" cy="0" r="1" gradientUnits="userSpaceOnUse" gradientTransform="translate(354.483 105.632) rotate(-0.281891) scale(25.7606 26.7843)">
<stop stop-color="white"/>
<stop offset="1" stop-color="white" stop-opacity="0"/>
</radialGradient>
<linearGradient id="paint15_linear_856_912" x1="376.595" y1="109.822" x2="314.985" y2="18.3481" gradientUnits="userSpaceOnUse">
<stop/>
<stop offset="1" stop-color="white"/>
</linearGradient>
<radialGradient id="paint16_radial_856_912" cx="0" cy="0" r="1" gradientUnits="userSpaceOnUse" gradientTransform="translate(351.058 99.9051) rotate(-0.271116) scale(25.4901)">
<stop stop-color="white"/>
<stop offset="1" stop-color="white" stop-opacity="0"/>
</radialGradient>
<linearGradient id="paint17_linear_856_912" x1="366.399" y1="109.87" x2="366.568" y2="145.556" gradientUnits="userSpaceOnUse">
<stop stop-color="#00C3A1"/>
<stop offset="1" stop-color="#006E5A"/>
</linearGradient>
<radialGradient id="paint18_radial_856_912" cx="0" cy="0" r="1" gradientUnits="userSpaceOnUse" gradientTransform="translate(351.058 99.9051) rotate(-0.271187) scale(50.9802 45.8821)">
<stop stop-color="white"/>
<stop offset="1" stop-color="white" stop-opacity="0"/>
</radialGradient>
<radialGradient id="paint19_radial_856_912" cx="0" cy="0" r="1" gradientUnits="userSpaceOnUse" gradientTransform="translate(351.058 99.9051) rotate(-0.271116) scale(25.4901)">
<stop stop-color="white"/>
<stop offset="1" stop-color="white" stop-opacity="0"/>
</radialGradient>
</defs>
</svg>
