<svg id="Group_594" data-name="Group 594" xmlns="http://www.w3.org/2000/svg" width="109.8" height="92.52" viewBox="0 0 109.8 92.52">
  <path id="Path_9187" data-name="Path 9187" d="M59.194,71.932c-.166.207-.282.383-.428.531a22.193,22.193,0,0,1-16.49,6.975,14.376,14.376,0,0,1-8.98-2.97.667.667,0,0,0-.875-.061c-.355.218-.735.4-1.114.6a32.319,32.319,0,0,1-1.2,6.432,21.583,21.583,0,0,1-1.876,4.949,19.645,19.645,0,0,1-1.634,2.422A4.474,4.474,0,0,1,24.44,92.3a3.9,3.9,0,0,1-3.916-.79,7.116,7.116,0,0,1-1.861-2.5,21.348,21.348,0,0,1-1.813-6.423c-.207-1.52-.324-3.052-.463-4.581a.846.846,0,0,0-.484-.828,18.315,18.315,0,0,1-9.687-11.84A24.243,24.243,0,0,1,6.56,50.767c.126-.4.263-.789.4-1.206a3.627,3.627,0,0,0-.374-.234,10.834,10.834,0,0,1-5.9-6.721A14.58,14.58,0,0,1,5.84,26.6c.431-.313.9-.58,1.434-.924-.037-.4-.09-.881-.125-1.36A14.107,14.107,0,0,1,10.76,13.5a15.509,15.509,0,0,1,8.676-4.863,19.652,19.652,0,0,1,13.135,1.911c.311.156.617.321.991.516.179-.211.36-.413.529-.624A28.271,28.271,0,0,1,44.552,2.161,22.423,22.423,0,0,1,54.213,0a20.212,20.212,0,0,1,17.1,9.07,20.993,20.993,0,0,1,3.571,8.417c.028.157.071.312.114.5a2.216,2.216,0,0,0,.352.02c7.4-.794,13.4,1.626,17.778,7.74a17.806,17.806,0,0,1,2.851,6.625,1.32,1.32,0,0,0,.769.978,27.04,27.04,0,0,1,9.6,8.135,17.349,17.349,0,0,1,3.167,7c1.027,5.466-.8,9.841-5.223,13.144A19.213,19.213,0,0,1,96.51,64.9a25.119,25.119,0,0,1-7.082.406,1.12,1.12,0,0,0-1.11.508,23.236,23.236,0,0,1-11.254,8.013,1.034,1.034,0,0,0-.83.947,56.667,56.667,0,0,1-1.461,7.248,29.578,29.578,0,0,1-1.968,5.513A13.212,13.212,0,0,1,71.3,89.953c-2.058,2.544-4.939,2.427-6.836-.231a14.294,14.294,0,0,1-1.821-3.831,49.605,49.605,0,0,1-1.8-8.168c-.162-1.035-.348-2.065-.49-3.1a9.563,9.563,0,0,1-.087-1.593.584.584,0,0,0-.3-.633C59.741,72.275,59.529,72.135,59.194,71.932ZM8.521,29.66c-.3.223-.557.381-.778.576a10.485,10.485,0,0,0-3.671,8.753,7.875,7.875,0,0,0,2.309,5.392A6.325,6.325,0,0,0,8.7,45.828c.169-.268.307-.506.464-.732a17.26,17.26,0,0,1,1.3-1.809,1.917,1.917,0,0,1,2.547-.229,1.986,1.986,0,0,1,.643,2.486,4.716,4.716,0,0,1-.391.659,22.179,22.179,0,0,0-3.9,11.273,18.275,18.275,0,0,0,1.985,9.865,13.26,13.26,0,0,0,8.062,6.877A14.223,14.223,0,0,0,30.3,72.981a1.107,1.107,0,0,0,.529-.688A1.969,1.969,0,0,1,33.382,71.1a2.539,2.539,0,0,1,1.124.909,7.847,7.847,0,0,0,2.628,2.146,10.7,10.7,0,0,0,4.761,1.221,17.775,17.775,0,0,0,14.616-6.55A3.275,3.275,0,0,1,59.759,68a1.607,1.607,0,0,1,.312.155c.268.185.533.374.791.572A12.6,12.6,0,0,0,64.6,70.711,16.268,16.268,0,0,0,73.759,71a18.173,18.173,0,0,0,9.759-5.88c.175-.2.324-.431.533-.713-.379-.123-.662-.218-.947-.309a28.3,28.3,0,0,1-10.689-6.133,20.842,20.842,0,0,1-5.368-7.482,14.263,14.263,0,0,1-.994-8.2,13.355,13.355,0,0,1,6.222-8.971,20.7,20.7,0,0,1,10.511-3.126,26.852,26.852,0,0,1,7.612.772c.293.071.6.261.946.08-.056-.2-.092-.385-.155-.557A13.332,13.332,0,0,0,79.93,21.376a14.431,14.431,0,0,0-6.492.452,2.364,2.364,0,0,1-1.9-.173,1.258,1.258,0,0,1-.7-1.257,5.039,5.039,0,0,0,.081-1.228,16.625,16.625,0,0,0-4.368-9.624A15.924,15.924,0,0,0,54.477,4.053,19.74,19.74,0,0,0,43,7.637a25.867,25.867,0,0,0-8.591,9.736,5.408,5.408,0,0,1-.75,1.165,1.972,1.972,0,0,1-3.36-1.709A5.977,5.977,0,0,1,30.76,15.6c.159-.356.362-.692.577-1.1-.262-.152-.472-.287-.692-.4a15.435,15.435,0,0,0-3.587-1.341,14.359,14.359,0,0,0-9.5.71,10.218,10.218,0,0,0-6.37,8.669A11.423,11.423,0,0,0,12.38,28.3a8.264,8.264,0,0,1,.484,1.081A1.984,1.984,0,0,1,9.42,31.211a6.987,6.987,0,0,1-.543-.891C8.764,30.127,8.663,29.925,8.521,29.66Zm74.943,4.9c-.82.1-2.216.2-3.582.449a13.59,13.59,0,0,0-6.637,3.059A8.163,8.163,0,0,0,70.4,43.126a9.5,9.5,0,0,0,.413,4.338,15.875,15.875,0,0,0,3.573,5.85,24.268,24.268,0,0,0,8.545,5.906,23.588,23.588,0,0,0,12.54,1.9,15.055,15.055,0,0,0,7.44-2.937,8.275,8.275,0,0,0,3.39-7.813,10.975,10.975,0,0,0-.9-3.286,17.835,17.835,0,0,0-4.82-6.421C95.828,36.593,90.255,34.7,83.464,34.557ZM64.342,74.4a3.688,3.688,0,0,0,0,.543,88.015,88.015,0,0,0,2.014,9.192,25.087,25.087,0,0,0,1.062,2.649,5.693,5.693,0,0,0,.571.832,10.189,10.189,0,0,0,.743-1.109,26.3,26.3,0,0,0,1.144-2.54,39.562,39.562,0,0,0,1.955-7.979c.041-.289.071-.58.116-.959A22.064,22.064,0,0,1,64.342,74.4ZM20.569,78.664a3.919,3.919,0,0,0-.028.445,31.64,31.64,0,0,0,.891,5.639,10.743,10.743,0,0,0,1.1,2.85c.171.287.313.623.71.741a4.959,4.959,0,0,0,1.381-1.825,27.922,27.922,0,0,0,2.346-7.709.966.966,0,0,0-.062-.3A18.33,18.33,0,0,1,20.569,78.664Z" transform="translate(0 0)"/>
  <path id="Path_9188" data-name="Path 9188" d="M4.464,25.609c.142.265.242.467.355.661a7.035,7.035,0,0,0,.543.891,1.984,1.984,0,0,0,3.445-1.832,8.234,8.234,0,0,0-.484-1.081,11.425,11.425,0,0,1-1.188-6.16A10.218,10.218,0,0,1,13.5,9.418a14.359,14.359,0,0,1,9.5-.71,15.435,15.435,0,0,1,3.586,1.341c.221.114.431.249.692.4-.215.4-.418.74-.577,1.1a5.977,5.977,0,0,0-.463,1.232A1.972,1.972,0,0,0,29.6,14.487a5.4,5.4,0,0,0,.75-1.165,25.868,25.868,0,0,1,8.591-9.736A19.74,19.74,0,0,1,50.419,0,15.924,15.924,0,0,1,62.5,5.5a16.626,16.626,0,0,1,4.368,9.624,5.047,5.047,0,0,1-.081,1.228,1.258,1.258,0,0,0,.7,1.257,2.364,2.364,0,0,0,1.9.173,14.43,14.43,0,0,1,6.492-.452,13.332,13.332,0,0,1,11.259,9.107c.063.172.1.354.155.557-.35.181-.653-.009-.946-.08a26.856,26.856,0,0,0-7.612-.772,20.7,20.7,0,0,0-10.511,3.126A13.355,13.355,0,0,0,62,38.234a14.262,14.262,0,0,0,.994,8.2,20.845,20.845,0,0,0,5.368,7.482,28.3,28.3,0,0,0,10.69,6.133c.285.091.569.185.947.309-.209.282-.358.509-.533.713A18.172,18.172,0,0,1,69.7,66.95a16.267,16.267,0,0,1-9.155-.29A12.6,12.6,0,0,1,56.8,64.676c-.257-.2-.523-.387-.791-.572a1.61,1.61,0,0,0-.312-.155,3.275,3.275,0,0,0-3.248.827,17.775,17.775,0,0,1-14.617,6.55,10.7,10.7,0,0,1-4.761-1.221,7.845,7.845,0,0,1-2.628-2.146,2.54,2.54,0,0,0-1.124-.909,1.969,1.969,0,0,0-2.558,1.193,1.107,1.107,0,0,1-.529.688,14.223,14.223,0,0,1-10.883,1.238,13.259,13.259,0,0,1-8.062-6.877,18.274,18.274,0,0,1-1.985-9.865,22.179,22.179,0,0,1,3.9-11.273,4.727,4.727,0,0,0,.391-.659,1.986,1.986,0,0,0-.643-2.486,1.917,1.917,0,0,0-2.547.228,17.233,17.233,0,0,0-1.3,1.809c-.157.226-.295.464-.464.732A6.325,6.325,0,0,1,2.324,40.33,7.876,7.876,0,0,1,.015,34.938a10.485,10.485,0,0,1,3.671-8.753C3.907,25.989,4.161,25.831,4.464,25.609ZM53.4,27.174a6.973,6.973,0,0,0,1.173,3.812,5.62,5.62,0,0,0,2.741,2.287c1.613.586,2.4.516,3.49-.877.114-.146.229-.293.346-.438.614-.759,1.216-1.527,1.847-2.273,1.394-1.649,2.8-3.285,4.2-4.927a1.774,1.774,0,0,0,.071-2.573,6.1,6.1,0,0,0-2.02-1.683,8.284,8.284,0,0,0-5.411-.819A7.68,7.68,0,0,0,53.4,27.174Z" transform="translate(4.058 4.051)" fill="#7a66ae"/>
  <path id="Path_9189" data-name="Path 9189" d="M.707.755C.755.666.805.575.856.48.594.327.384.193.164.079.11.051.054.027,0,0A1.987,1.987,0,0,0,.707.755Z" transform="translate(30.481 14.022)" fill="#fff"/>
  <path id="Path_9190" data-name="Path 9190" d="M71.8,6.6a18.631,18.631,0,0,1-7.363,3.557,16.268,16.268,0,0,1-9.155-.291,12.607,12.607,0,0,1-3.744-1.984c-.258-.2-.523-.387-.791-.572a1.617,1.617,0,0,0-.312-.155,3.274,3.274,0,0,0-3.248.827,17.776,17.776,0,0,1-14.617,6.55,10.7,10.7,0,0,1-4.761-1.221,7.843,7.843,0,0,1-2.627-2.147,2.537,2.537,0,0,0-1.124-.909A1.968,1.968,0,0,0,21.5,11.448a1.108,1.108,0,0,1-.529.688A14.223,14.223,0,0,1,10.09,13.374,13.261,13.261,0,0,1,2.029,6.5,17.439,17.439,0,0,1,.1,0C.077.227.058.454.044.684a18.272,18.272,0,0,0,1.985,9.865,13.261,13.261,0,0,0,8.062,6.877,14.223,14.223,0,0,0,10.882-1.238A1.108,1.108,0,0,0,21.5,15.5a1.968,1.968,0,0,1,2.557-1.193,2.539,2.539,0,0,1,1.124.909,7.845,7.845,0,0,0,2.627,2.146,10.7,10.7,0,0,0,4.761,1.221,17.776,17.776,0,0,0,14.617-6.55,3.275,3.275,0,0,1,3.248-.827,1.61,1.61,0,0,1,.312.155c.268.185.533.374.791.572a12.6,12.6,0,0,0,3.744,1.984,16.266,16.266,0,0,0,9.155.291A18.171,18.171,0,0,0,74.2,8.328c.175-.2.324-.431.534-.713-.379-.123-.663-.218-.947-.309Q72.773,6.985,71.8,6.6Z" transform="translate(9.322 56.794)" fill="#4f3c88"/>
  <path id="Path_9191" data-name="Path 9191" d="M13.154,0c6.791.147,12.364,2.037,17.121,6.105a17.834,17.834,0,0,1,4.82,6.421,10.98,10.98,0,0,1,.9,3.286,8.275,8.275,0,0,1-3.39,7.813,15.058,15.058,0,0,1-7.44,2.937,23.588,23.588,0,0,1-12.54-1.9,24.264,24.264,0,0,1-8.545-5.906,15.875,15.875,0,0,1-3.573-5.85A9.5,9.5,0,0,1,.093,8.569,8.164,8.164,0,0,1,2.935,3.508,13.59,13.59,0,0,1,9.572.449C10.938.2,12.334.1,13.154,0Zm2.872,10.688a7.837,7.837,0,0,0-.964-3.755,3.6,3.6,0,0,0-2.488-1.856A3.459,3.459,0,0,0,8.757,7.335a7.124,7.124,0,0,0-.475,3.212,6.169,6.169,0,0,0,1.458,3.835,3.3,3.3,0,0,0,5.33-.271A5.914,5.914,0,0,0,16.026,10.688Z" transform="translate(70.31 34.557)" fill="#dccffd"/>
  <path id="Path_9192" data-name="Path 9192" d="M35.992,7.126c0-.043-.01-.089-.016-.132A8.286,8.286,0,0,1,32.6,12.606a15.089,15.089,0,0,1-7.439,2.938,23.625,23.625,0,0,1-12.541-1.9A24.282,24.282,0,0,1,4.078,7.739,15.89,15.89,0,0,1,.5,1.889,10.32,10.32,0,0,1,.078,0,9.5,9.5,0,0,0,.5,4.221a15.864,15.864,0,0,0,3.574,5.85,24.24,24.24,0,0,0,8.544,5.906,23.56,23.56,0,0,0,12.541,1.9A15.053,15.053,0,0,0,32.6,14.941,8.283,8.283,0,0,0,35.992,7.126Z" transform="translate(70.312 43.242)" fill="#6b55ae"/>
  <path id="Path_9193" data-name="Path 9193" d="M.009,0A22.069,22.069,0,0,0,7.617.627c-.045.378-.075.669-.116.959A39.588,39.588,0,0,1,5.546,9.565,26.353,26.353,0,0,1,4.4,12.105a10.229,10.229,0,0,1-.743,1.109,5.686,5.686,0,0,1-.571-.832A25.143,25.143,0,0,1,2.026,9.735,88.041,88.041,0,0,1,.012.543,3.725,3.725,0,0,1,.009,0Z" transform="translate(64.334 74.399)" fill="#7a66ae"/>
  <path id="Path_9194" data-name="Path 9194" d="M.03.156A18.331,18.331,0,0,0,6.371,0a.969.969,0,0,1,.062.3A27.932,27.932,0,0,1,4.088,8.008,4.962,4.962,0,0,1,2.707,9.832c-.4-.118-.539-.454-.71-.741a10.747,10.747,0,0,1-1.1-2.85A31.643,31.643,0,0,1,0,.6,3.984,3.984,0,0,1,.03.156Z" transform="translate(20.539 78.508)" fill="#7a66ae"/>
  <path id="Path_9195" data-name="Path 9195" d="M.358,2.391a22.014,22.014,0,0,0,6.922.567c.08-.456.155-.913.221-1.372.042-.289.071-.58.116-.959A22.069,22.069,0,0,1,.009,0a3.725,3.725,0,0,0,0,.543Q.187,1.467.358,2.391Z" transform="translate(64.334 74.399)" fill="#4f3c88"/>
  <path id="Path_9196" data-name="Path 9196" d="M.188,2.485A18.23,18.23,0,0,0,6.012,2.37C6.166,1.684,6.3.993,6.433.3A.966.966,0,0,0,6.371,0,18.33,18.33,0,0,1,.03.156,4.052,4.052,0,0,0,0,.6Q.072,1.547.188,2.485Z" transform="translate(20.54 78.508)" fill="#6b55ae"/>
  <path id="Path_9197" data-name="Path 9197" d="M0,7.628A7.68,7.68,0,0,1,6.439.138,8.284,8.284,0,0,1,11.85.957,6.1,6.1,0,0,1,13.871,2.64,1.774,1.774,0,0,1,13.8,5.212C12.4,6.854,10.99,8.491,9.6,10.14c-.63.745-1.232,1.514-1.847,2.273-.117.144-.231.291-.346.438-1.09,1.393-1.877,1.463-3.49.877a5.621,5.621,0,0,1-2.741-2.287A6.971,6.971,0,0,1,0,7.628ZM9.637,4.692A3.812,3.812,0,0,0,5.4,4.221a2.836,2.836,0,0,0-1.591,3.17A2.885,2.885,0,0,0,5.5,9.525Z" transform="translate(57.455 23.597)"/>
  <path id="Path_9198" data-name="Path 9198" d="M7.762,5.667a5.913,5.913,0,0,1-.956,3.423,3.3,3.3,0,0,1-5.33.271A6.169,6.169,0,0,1,.018,5.525,7.126,7.126,0,0,1,.493,2.313,3.459,3.459,0,0,1,4.31.056,3.6,3.6,0,0,1,6.8,1.912,7.836,7.836,0,0,1,7.762,5.667Z" transform="translate(78.574 39.578)"/>
  <path id="Path_9199" data-name="Path 9199" d="M5.884.9,1.752,5.732A2.885,2.885,0,0,1,.061,3.6,2.836,2.836,0,0,1,1.651.428,3.812,3.812,0,0,1,5.884.9Z" transform="translate(61.207 27.39)" fill="#dccffd"/>
</svg>
